<svg width="97" height="63" viewBox="0 0 97 63" fill="none" xmlns="http://www.w3.org/2000/svg">
<path d="M22.6358 63C20.7165 63.0007 18.8401 62.4326 17.244 61.3677C15.6479 60.3028 14.4037 58.7888 13.6689 57.0174C12.9341 55.2459 12.7417 53.2965 13.116 51.4158C13.4902 49.5351 14.4144 47.8075 15.7716 46.4516C17.1287 45.0957 18.8579 44.1723 20.7403 43.7984C22.6228 43.4245 24.574 43.6167 26.347 44.3509C28.1201 45.085 29.6354 46.328 30.7013 47.9226C31.7672 49.5173 32.3358 51.392 32.3351 53.3095C32.3316 55.8785 31.3085 58.3413 29.4903 60.1578C27.6721 61.9744 25.2071 62.9965 22.6358 63ZM22.6358 46.8548C21.3567 46.8548 20.1063 47.2338 19.0427 47.9438C17.9792 48.6537 17.1502 49.6629 16.6607 50.8436C16.1712 52.0242 16.0431 53.3234 16.2927 54.5768C16.5422 55.8302 17.1582 56.9815 18.0627 57.8852C18.9671 58.7888 20.1195 59.4042 21.3741 59.6535C22.6286 59.9029 23.929 59.7749 25.1107 59.2859C26.2925 58.7968 27.3026 57.9686 28.0132 56.906C28.7238 55.8435 29.1031 54.5942 29.1031 53.3163C29.1036 52.4673 28.9367 51.6265 28.6119 50.842C28.2871 50.0575 27.8108 49.3446 27.2103 48.744C26.6097 48.1433 25.8967 47.6668 25.1118 47.3415C24.3269 47.0162 23.4855 46.8485 22.6358 46.8481V46.8548Z" fill="white"/>
<path d="M77.6123 63C75.693 63.0007 73.8167 62.4326 72.2205 61.3677C70.6244 60.3028 69.3803 58.7888 68.6455 57.0174C67.9107 55.2459 67.7183 53.2965 68.0925 51.4158C68.4668 49.5351 69.391 47.8075 70.7481 46.4516C72.1053 45.0957 73.8344 44.1723 75.7169 43.7984C77.5994 43.4245 79.5505 43.6167 81.3236 44.3509C83.0967 45.085 84.612 46.328 85.6779 47.9226C86.7438 49.5173 87.3124 51.392 87.3117 53.3095C87.309 55.8788 86.2863 58.342 84.4679 60.1588C82.6495 61.9755 80.184 62.9973 77.6123 63ZM77.6123 46.8548C76.3332 46.8548 75.0828 47.2338 74.0193 47.9438C72.9557 48.6537 72.1268 49.6629 71.6373 50.8436C71.1478 52.0242 71.0197 53.3234 71.2693 54.5768C71.5188 55.8302 72.1348 56.9815 73.0392 57.8852C73.9437 58.7888 75.0961 59.4042 76.3506 59.6535C77.6052 59.9029 78.9055 59.7749 80.0873 59.2859C81.2691 58.7968 82.2791 57.9686 82.9898 56.906C83.7004 55.8435 84.0797 54.5942 84.0797 53.3163C84.0801 52.4673 83.9132 51.6265 83.5884 50.842C83.2637 50.0575 82.7874 49.3446 82.1869 48.744C81.5863 48.1433 80.8732 47.6668 80.0883 47.3415C79.3034 47.0162 78.4621 46.8485 77.6123 46.8481V46.8548Z" fill="white"/>
<path d="M95.3937 54.9242H85.6909V51.6918H93.7709V36.0141L79.9676 14.5376H64.683V51.6918H69.531V54.9242H63.0535C62.6249 54.9242 62.2139 54.7541 61.9108 54.4513C61.6078 54.1486 61.4375 53.7379 61.4375 53.3097V12.9231C61.4375 12.4949 61.6078 12.0843 61.9108 11.7815C62.2139 11.4787 62.6249 11.3086 63.0535 11.3086H80.8396C81.1078 11.3108 81.3713 11.3796 81.6064 11.5088C81.8414 11.638 82.0407 11.8234 82.1862 12.0486L96.737 34.6653C96.9059 34.9258 96.9959 35.2295 96.9962 35.5399V53.3097C96.9962 53.7356 96.8278 54.1442 96.5277 54.4466C96.2275 54.749 95.8199 54.9207 95.3937 54.9242Z" fill="white"/>
<path d="M93.7778 35.5403H69.5379C69.3257 35.5403 69.1155 35.4986 68.9195 35.4174C68.7234 35.3363 68.5452 35.2174 68.3952 35.0675C68.2451 34.9175 68.1261 34.7395 68.0449 34.5437C67.9637 34.3478 67.9219 34.1378 67.9219 33.9258V19.385C67.9219 19.173 67.9637 18.9631 68.0449 18.7672C68.1261 18.5713 68.2451 18.3933 68.3952 18.2434C68.5452 18.0935 68.7234 17.9745 68.9195 17.8934C69.1155 17.8123 69.3257 17.7705 69.5379 17.7705H84.092V20.9996H71.1438V32.3079H93.7778V35.5403Z" fill="white"/>
<path d="M63.0576 54.924H30.7208V51.6916H61.4416V3.23241H3.23536V51.6916H14.5507V54.924H1.616C1.18741 54.924 0.776374 54.7539 0.473315 54.4511C0.170256 54.1483 0 53.7377 0 53.3095L0 1.61452C0 1.18633 0.170256 0.775667 0.473315 0.472886C0.776374 0.170104 1.18741 3.50405e-06 1.616 3.50405e-06H63.0576C63.2701 -0.000438799 63.4806 0.0409956 63.6771 0.121935C63.8735 0.202874 64.052 0.321729 64.2025 0.471695C64.3529 0.621661 64.4722 0.799794 64.5536 0.995896C64.6351 1.192 64.677 1.40222 64.677 1.61452V53.3095C64.677 53.5218 64.6351 53.732 64.5536 53.9281C64.4722 54.1242 64.3529 54.3023 64.2025 54.4523C64.052 54.6023 63.8735 54.7211 63.6771 54.8021C63.4806 54.883 63.2701 54.9244 63.0576 54.924Z" fill="white"/>
<path d="M11.3199 39.6406H1.61719V42.873H11.3199V39.6406Z" fill="white"/>
<path d="M61.4425 39.6406H33.957V42.873H61.4425V39.6406Z" fill="white"/>
<path d="M95.397 45.2295H88.9297V48.4619H95.397V45.2295Z" fill="white"/>
<path d="M24.251 51.6914H21.0156V54.9238H24.251V51.6914Z" fill="white"/>
<path d="M79.2276 51.6914H75.9922V54.9238H79.2276V51.6914Z" fill="white"/>
<path d="M20.3872 27.4639L19.1281 25.1497C18.6264 24.255 18.2965 23.6327 17.9699 22.96H17.9194C17.6434 23.6327 17.3303 24.255 16.8657 25.1497L15.7075 27.4639H13.2734L16.7276 21.5809L13.4115 15.8359H15.8456L17.1081 18.2342C17.4851 18.9573 17.7612 19.5292 18.0743 20.1817H18.108C18.4177 19.4585 18.6601 18.9405 19.0237 18.2342L20.266 15.8359H22.7001L19.2998 21.5271L22.8381 27.4807L20.3872 27.4639Z" fill="white"/>
<path d="M34.2234 15.8359V27.4639H32.099V17.5783H28.9242V20.6829C28.9242 23.478 28.665 25.9973 26.9547 27.0501C26.3276 27.4206 25.6128 27.6169 24.8842 27.6186L24.625 25.8998C25.1036 25.8263 25.5485 25.6093 25.901 25.2775C26.7123 24.4669 26.8335 22.6405 26.8335 20.8275V15.8359H34.2234Z" fill="white"/>
<path d="M39.683 15.8359V27.4639H37.5586V15.8359H39.683Z" fill="white"/>
<path d="M50.1822 15.8359V17.5783H45.1153V20.0808C45.5913 20.0237 46.0702 19.9945 46.5495 19.9933C47.6619 19.9613 48.7576 20.2687 49.6906 20.8746C50.1472 21.183 50.5171 21.603 50.7652 22.0946C51.0133 22.5862 51.1313 23.1331 51.108 23.6832C51.1244 24.1606 51.0406 24.6362 50.862 25.0794C50.6834 25.5225 50.414 25.9234 50.0711 26.2563C49.0173 27.2217 47.307 27.6018 45.617 27.6018C44.7447 27.6061 43.8731 27.5533 43.0078 27.4437V15.8359H50.1822ZM45.1153 25.8998C45.4867 25.9511 45.8616 25.9736 46.2364 25.9671C46.983 25.9893 47.7097 25.7244 48.2665 25.2271C48.4657 25.029 48.6219 24.7921 48.7256 24.5311C48.8293 24.2702 48.8781 23.9907 48.8692 23.7101C48.8859 23.4035 48.8231 23.0978 48.6869 22.8226C48.5506 22.5474 48.3455 22.3121 48.0915 22.1393C47.5239 21.7516 46.8459 21.5581 46.159 21.5877C45.8223 21.5877 45.452 21.6213 45.1052 21.6549L45.1153 25.8998Z" fill="white"/>
</svg>
