<svg width="91" height="72" viewBox="0 0 91 72" fill="none" xmlns="http://www.w3.org/2000/svg">
<path d="M90.9423 26.9876C91.3576 23.4004 89.5309 19.7826 85.5161 16.2299C82.5126 13.5816 76.6173 8.71437 70.8103 5.88217C70.6104 5.78733 70.3959 5.72645 70.1758 5.70205C69.9572 5.65406 69.7305 5.65676 69.5132 5.70991C69.2958 5.76307 69.0936 5.86528 68.9221 6.00865C68.8226 6.06539 68.7275 6.12944 68.6376 6.20027C68.5007 6.33145 68.3829 6.48109 68.2876 6.64484C68.0346 6.80189 67.7494 6.90013 67.4531 6.93227C66.5225 7.05874 64.5304 6.83646 61.054 4.38368C59.9772 3.54053 59.2619 3.01548 59.1696 2.95033C59.1537 2.9411 59.137 2.9334 59.1196 2.92734C59.0199 2.85817 58.9112 2.80273 58.7966 2.76254L58.7581 2.73955C51.5476 0.386408 48.2019 0.0261554 48.025 0.00316057C47.8768 -0.00585944 47.7282 0.00444773 47.5827 0.0338204L47.4981 0.0529827C47.3629 0.0863715 47.2333 0.13931 47.1135 0.210114C47.0813 0.228314 47.0505 0.248807 47.0212 0.271434C46.9077 0.347474 46.8054 0.439075 46.7174 0.543539C46.7174 0.562702 46.6944 0.581864 46.679 0.601026C46.5977 0.708407 46.5329 0.827236 46.4867 0.953614L46.4598 0.995771C46.4616 1.00333 46.4616 1.01121 46.4598 1.01877C46.4598 1.01877 46.4598 1.01877 46.4598 1.04176C46.0022 2.47894 45.3715 3.39107 44.6023 3.75515C43.0949 4.45266 40.5837 3.3949 38.3686 2.46361C37.561 2.13018 36.7572 1.80826 35.9689 1.53615L35.3959 1.3292H35.3651C35.2077 1.28496 35.044 1.26683 34.8806 1.27554H34.8421C18.229 2.27198 9.31095 10.0902 8.94176 10.4313C8.90889 10.4692 8.87808 10.5089 8.84947 10.5501C4.71926 14.1412 1.78504 19.6024 0.26601 26.7653C-0.411456 30.0064 0.21695 33.383 2.01561 36.1664C3.81428 38.9498 6.63897 40.9168 9.8801 41.643L33.1193 46.7862C33.0592 46.9008 33.0053 47.0185 32.9578 47.1387C32.7951 47.5728 32.7358 48.0385 32.7847 48.4993V52.5502C30.3389 53.1212 26.5279 54.4243 25.6818 56.9499C25.5729 57.2967 25.5273 57.6601 25.5472 58.023C25.5472 58.023 25.5472 58.0498 25.5472 58.0613V63.5686C25.5355 64.3764 25.8293 65.159 26.3702 65.7607C28.9237 68.7386 34.2384 72 45.2715 72C47.0443 72 48.9671 71.9157 51.0399 71.7317C68.676 70.1987 82.1896 63.5762 81.7781 56.7851V55.7848C86.4698 53.2209 89.1963 50.1587 89.0117 47.0583V41.3096C89.0098 41.2904 89.0098 41.2712 89.0117 41.2521C89.0099 41.2253 89.0099 41.1984 89.0117 41.1716C89.0043 41.1045 88.9927 41.038 88.9771 40.9723C88.8254 39.9744 88.2887 39.075 87.4812 38.4659C86.5313 37.6994 85.1738 37.182 83.5048 36.8754C88.0311 33.7673 90.5423 30.456 90.9423 26.9876ZM68.1146 9.84495C68.3089 9.81048 68.5004 9.76181 68.6876 9.69932C68.9221 10.3432 69.1875 11.102 69.4567 11.8378C68.8145 11.1748 68.1569 10.5271 67.4993 9.90244C67.7052 9.89434 67.9107 9.87515 68.1146 9.84495ZM45.8445 6.45705C47.0445 5.8638 48.0091 4.88499 48.5826 3.6785C51.1745 5.25748 54.5818 7.419 56.8122 11.3703C58.4505 14.2715 58.2467 15.7738 57.9006 16.0152C57.4929 16.3027 55.347 16.0152 52.4551 12.6848C50.4245 10.3573 48.1049 8.29672 45.5522 6.55286C45.6484 6.51837 45.756 6.51837 45.8445 6.45705ZM3.18869 27.3785C4.28855 22.1855 6.49979 16.4253 10.9184 12.6503L11.003 12.5775C11.1184 12.4779 11.2376 12.3859 11.3568 12.2901C11.6683 12.0448 12.1606 11.6845 12.8028 11.2553C15.5947 9.46554 19.1135 8.38095 23.5706 8.4461C39.1877 8.70671 53.182 21.8942 54.1164 37.2395C54.1889 38.3279 54.1139 39.421 53.8934 40.4894L41.8296 42.4785C40.426 42.7122 37.8417 43.245 35.7843 44.3525H35.7574L10.5185 38.738C8.04591 38.1809 5.89197 36.678 4.52088 34.5532C3.1498 32.4283 2.67136 29.8516 3.18869 27.3785ZM33.2077 55.505C33.3192 55.6917 33.4479 55.8674 33.5923 56.0301C36.1419 59.0232 41.4489 62.2732 52.4859 62.2732C54.2357 62.2732 56.1277 62.1889 58.1774 62.0087C55.7816 62.461 53.2935 62.8097 50.7631 63.0358C36.2727 64.3082 30.6696 60.4873 28.6199 58.092C28.5764 58.0474 28.5413 57.9955 28.516 57.9387C28.5179 57.9285 28.5179 57.9181 28.516 57.908C28.566 57.5439 29.7851 56.3405 33.2077 55.505ZM71.3372 63.7372C65.8649 66.2934 58.5582 68.0794 50.7631 68.7692C36.265 70.0416 30.6696 66.2206 28.6199 63.8292C28.5199 63.7142 28.5084 63.6529 28.5084 63.6184V62.0241C31.5618 64.2967 36.6726 66.2666 45.2446 66.2666C47.0136 66.2666 48.9364 66.1823 51.013 65.9983C62.1269 65.0211 72.2909 61.8363 77.7171 57.6665C78.0709 57.5247 78.417 57.3829 78.7554 57.2335C78.5555 59.2149 75.7712 61.6677 71.3372 63.7372ZM78.5708 54.0104C73.1023 56.5666 65.7956 58.3526 58.0005 59.0386C43.5102 60.3148 37.9071 56.49 35.8535 54.0947C35.7574 53.9835 35.7458 53.9261 35.7458 53.8916V52.2973C38.8224 54.5699 43.914 56.5398 52.4821 56.5398C54.2549 56.5398 56.1777 56.4555 58.2505 56.2715C70.7257 55.1716 81.1205 51.5461 86.0006 47.0736V47.1426C86.1352 49.1776 83.2779 51.8105 78.5708 54.0104ZM86.0121 41.3939V41.5088C86.0429 43.5286 83.2125 46.1078 78.5708 48.2847C73.1023 50.8409 65.7956 52.6269 58.0005 53.3129C43.5063 54.5852 37.9071 50.7643 35.8574 48.3728C35.8126 48.3293 35.7773 48.2771 35.7535 48.2195C35.7517 48.2081 35.7517 48.1964 35.7535 48.185C35.8112 47.8018 37.4572 46.2036 42.318 45.3988L75.5636 39.9184C80.6821 39.0752 84.2855 39.7459 85.5891 40.7845C85.9698 41.0796 86.0045 41.2981 86.0121 41.3939ZM78.4093 36.4385C78.3121 36.4912 78.2217 36.5556 78.1401 36.6301C77.1518 36.6953 76.1366 36.7987 75.0636 36.975L56.9891 39.9529C57.1125 38.9858 57.1447 38.0094 57.0853 37.0363C56.1046 20.9936 42.1373 7.1124 26.0164 5.61007C28.868 4.90829 31.7764 4.45942 34.7075 4.2687C36.2688 4.83591 44.4985 8.05519 50.1824 14.6432C53.5896 18.5907 57.2891 20.093 59.608 18.4757C60.3771 17.9315 62.6845 15.7086 59.408 9.9331C58.2953 7.99024 56.8657 6.24561 55.1778 4.77076C55.9124 4.99304 56.7161 5.23832 57.5544 5.51426C58.0659 5.92816 58.5658 6.30375 59.0581 6.664C61.4847 8.51125 65.9649 12.2019 69.2144 15.9961C69.541 16.3826 69.9877 16.6495 70.4837 16.7543C70.9797 16.8591 71.4966 16.796 71.9525 16.5748C72.4237 16.3598 72.8085 15.9929 73.045 15.5334C73.2815 15.0738 73.3559 14.5483 73.2562 14.0415C73.1331 13.3823 72.5101 11.4967 71.9294 9.85262C76.8326 12.704 81.5435 16.6974 83.5509 18.4604C86.7967 21.327 88.2926 24.0826 87.9965 26.6465C87.5965 29.9271 84.3778 33.223 78.4093 36.4385Z" fill="white"/>
</svg>
