<svg width="90" height="68" viewBox="0 0 90 68" fill="none" xmlns="http://www.w3.org/2000/svg">
<path d="M89.0328 65.7345H77.8107V27.5413C77.8107 27.3125 77.7115 27.2 77.7115 26.9749C77.9068 26.7462 78.099 26.4085 78.2943 26.1798C78.7744 26.9481 79.4011 27.5743 80.1245 28.0086C80.8478 28.4429 81.6479 28.6733 82.4607 28.6813H83.0404C83.7996 28.5777 84.5247 28.2539 85.15 27.7391C85.7752 27.2243 86.2808 26.5348 86.621 25.7333C87.0036 24.8956 87.2038 23.9603 87.2038 23.0104C87.2038 22.0604 87.0036 21.1251 86.621 20.2875L78.967 3.51436C78.4919 2.46139 77.7822 1.5787 76.9133 0.959957C76.0444 0.341212 75.0486 0.00949255 74.0318 0L15.9682 0C14.9513 0.00949255 13.9556 0.341212 13.0867 0.959957C12.2178 1.5787 11.5081 2.46139 11.033 3.51436L3.38833 20.1749C3.14048 20.7022 2.97661 21.278 2.90473 21.874C2.82597 22.0063 2.79073 22.1675 2.80552 22.3278V22.4404C2.70786 23.5437 2.91194 24.6548 3.38833 25.6135C3.72959 26.414 4.23551 27.1026 4.86055 27.6173C5.48559 28.1319 6.21011 28.4564 6.96886 28.5615H7.54857C8.35985 28.5532 9.15831 28.3234 9.8805 27.8904C10.6027 27.4575 11.2287 26.8332 11.7088 26.0673C11.9041 26.2924 12.0002 26.5211 12.1924 26.7462V65.7345H0.967209C0.710689 65.7345 0.464676 65.8539 0.283289 66.0663C0.101902 66.2787 0 66.5668 0 66.8673C0 67.1677 0.101902 67.4558 0.283289 67.6682C0.464676 67.8807 0.710689 68 0.967209 68H89.0328C89.2893 68 89.5353 67.8807 89.7167 67.6682C89.8981 67.4558 90 67.1677 90 66.8673C90 66.5668 89.8981 66.2787 89.7167 66.0663C89.5353 65.8539 89.2893 65.7345 89.0328 65.7345ZM36.3881 65.622H20.3238V41.4789C20.3201 40.9718 20.4026 40.469 20.5666 39.9997C20.7305 39.5304 20.9727 39.104 21.2789 38.7454C21.585 38.3869 21.9491 38.1033 22.3498 37.9113C22.7506 37.7192 23.1799 37.6226 23.6129 37.6269H33.0959C33.529 37.6226 33.9585 37.7192 34.3594 37.9112C34.7603 38.1032 35.1246 38.3867 35.431 38.7452C35.7374 39.1037 35.9799 39.5301 36.1442 39.9994C36.3085 40.4687 36.3914 40.9717 36.3881 41.4789V65.622ZM75.774 65.622H38.3225V41.4789C38.3291 40.6678 38.199 39.8631 37.9398 39.1109C37.6806 38.3587 37.2974 37.6737 36.8119 37.0951C36.3265 36.5165 35.7485 36.0556 35.1108 35.7388C34.4732 35.422 33.7885 35.2555 33.0959 35.2489H23.6129C22.9185 35.2483 22.231 35.4098 21.5905 35.724C20.9501 36.0383 20.3696 36.4989 19.8829 37.079C19.3962 37.6591 19.0132 38.347 18.7562 39.1024C18.4993 39.8579 18.3735 40.6658 18.3863 41.4789V65.5095H14.226V28.3182C14.7849 28.5518 15.3748 28.6674 15.9682 28.6595C16.7795 28.6512 17.578 28.4214 18.3002 27.9885C19.0224 27.5555 19.6484 26.9312 20.1285 26.1653C20.6038 26.9375 21.2291 27.5664 21.9526 28.0001C22.6762 28.4339 23.4774 28.66 24.2903 28.66C25.1031 28.66 25.9043 28.4339 26.6279 28.0001C27.3515 27.5664 27.9767 26.9375 28.4521 26.1653C28.9274 26.9375 29.5526 27.5664 30.2762 28.0001C30.9998 28.4339 31.801 28.66 32.6138 28.66C33.4267 28.66 34.2279 28.4339 34.9515 28.0001C35.6751 27.5664 36.3003 26.9375 36.7756 26.1653C37.2506 26.9375 37.8756 27.5664 38.5989 28.0001C39.3222 28.4339 40.1232 28.6601 40.9359 28.6601C41.7485 28.6601 42.5495 28.4339 43.2728 28.0001C43.9961 27.5664 44.6211 26.9375 45.0961 26.1653C45.5715 26.9375 46.1967 27.5664 46.9202 28.0001C47.6438 28.4339 48.445 28.66 49.2579 28.66C50.0707 28.66 50.872 28.4339 51.5955 28.0001C52.3191 27.5664 52.9443 26.9375 53.4197 26.1653C53.895 26.9375 54.5202 27.5664 55.2438 28.0001C55.9674 28.4339 56.7686 28.66 57.5815 28.66C58.3943 28.66 59.1955 28.4339 59.9191 28.0001C60.6427 27.5664 61.2679 26.9375 61.7432 26.1653C62.2183 26.9375 62.8432 27.5664 63.5665 28.0001C64.2898 28.4339 65.0908 28.6601 65.9035 28.6601C66.7161 28.6601 67.5171 28.4339 68.2404 28.0001C68.9638 27.5664 69.5887 26.9375 70.0637 26.1653C70.5425 26.9353 71.1682 27.5638 71.891 28.0006C72.6138 28.4374 73.4137 28.6705 74.2271 28.6813C74.8188 28.6795 75.4063 28.5642 75.9662 28.34V65.622H75.774ZM6.48526 18.3596H83.5147L84.7733 21.1951H5.22665L6.48526 18.3596ZM74.1279 26.4085C73.4203 26.3856 72.7376 26.0979 72.1798 25.5877C71.6219 25.0775 71.2182 24.3715 71.0278 23.5731H77.2279C77.0379 24.3718 76.6343 25.0781 76.0764 25.5884C75.5184 26.0987 74.8355 26.3862 74.1279 26.4085ZM68.9043 23.5731C68.7406 24.3885 68.344 25.114 67.7803 25.6297C67.2166 26.1453 66.5195 26.42 65.8043 26.4085C65.0927 26.4034 64.4026 26.1223 63.8418 25.6094C63.2809 25.0964 62.8809 24.3804 62.7043 23.5731H68.9043ZM60.5807 23.5731C60.417 24.3885 60.0205 25.114 59.4567 25.6297C58.893 26.1453 58.1959 26.42 57.4807 26.4085C56.7732 26.3856 56.0905 26.0979 55.5326 25.5877C54.9748 25.0775 54.5711 24.3715 54.3807 23.5731H60.5807ZM52.2572 23.5731C52.0939 24.3888 51.6975 25.1147 51.1337 25.6305C50.5699 26.1462 49.8725 26.4207 49.1571 26.4085C48.4457 26.4027 47.7558 26.1215 47.1951 25.6086C46.6344 25.0958 46.2343 24.3801 46.0571 23.5731H52.2572ZM43.9367 23.5731C43.7729 24.3885 43.3764 25.114 42.8127 25.6297C42.249 26.1453 41.5519 26.42 40.8367 26.4085C40.1251 26.4034 39.435 26.1223 38.8741 25.6094C38.3133 25.0964 37.9133 24.3804 37.7366 23.5731H43.9367ZM35.6131 23.5731C35.4494 24.3885 35.0528 25.114 34.4891 25.6297C33.9254 26.1453 33.2283 26.42 32.5131 26.4085C31.8055 26.3856 31.1229 26.0979 30.565 25.5877C30.0072 25.0775 29.6035 24.3715 29.4131 23.5731H35.6131ZM27.2802 23.5731C27.117 24.3888 26.7206 25.1147 26.1568 25.6305C25.593 26.1462 24.8956 26.4207 24.1802 26.4085C23.4727 26.3856 22.79 26.0979 22.2321 25.5877C21.6743 25.0775 21.2706 24.3715 21.0802 23.5731H27.2802ZM18.9598 23.5731C18.796 24.3885 18.3995 25.114 17.8358 25.6297C17.2721 26.1453 16.5749 26.42 15.8597 26.4085C15.1521 26.3862 14.4691 26.0987 13.9112 25.5884C13.3533 25.0781 12.9497 24.3718 12.7597 23.5731H18.9598ZM82.8203 26.2924H82.4607C81.7535 26.2702 81.0708 25.9833 80.5129 25.4737C79.9551 24.9641 79.5512 24.2585 79.3607 23.4605H85.1671C85.071 23.8018 85.071 24.252 84.8757 24.5933C84.6868 25.0553 84.4009 25.4536 84.0446 25.7508C83.6884 26.048 83.2735 26.2343 82.8389 26.2924H82.8203ZM12.7597 4.53454C13.0739 3.86023 13.5347 3.29519 14.0955 2.8967C14.6562 2.4982 15.297 2.28043 15.9527 2.26546H74.0163C74.6749 2.26456 75.3212 2.47574 75.8843 2.87592C76.4474 3.27611 76.9058 3.84988 77.2093 4.53454L82.4607 16.0942H7.54857L12.7597 4.53454ZM7.54857 26.4085H7.16106C6.72928 26.3417 6.3182 26.1514 5.96408 25.8544C5.60996 25.5575 5.32369 25.163 5.13055 24.7058C4.97491 24.3524 4.87614 23.9684 4.83914 23.5731H10.6455C10.4819 24.3879 10.0858 25.113 9.52271 25.6285C8.95964 26.144 8.26324 26.4192 7.54857 26.4085Z" fill="white"/>
<path d="M51.4864 35.3613H46.7433C45.6935 35.369 44.6887 35.8612 43.9469 36.7313C43.2051 37.6014 42.7864 38.7789 42.7815 40.0084V52.1344C42.7757 52.7466 42.8743 53.3539 43.0717 53.9208C43.2691 54.4877 43.5611 55.0027 43.9307 55.4356C44.3004 55.8685 44.7401 56.2105 45.2242 56.4416C45.7082 56.6728 46.2268 56.7883 46.7495 56.7815H51.4926C52.5432 56.7758 53.5493 56.2842 54.2919 55.4139C55.0345 54.5435 55.4534 53.3648 55.4575 52.1344V40.0084C55.5505 37.3944 53.7122 35.3613 51.4864 35.3613ZM53.5169 52.1344C53.5233 52.4487 53.4751 52.7613 53.3753 53.0532C53.2755 53.3451 53.1262 53.6102 52.9363 53.8325C52.7465 54.0548 52.5201 54.2297 52.2709 54.3466C52.0217 54.4635 51.7548 54.5199 51.4864 54.5124H46.7433C46.4747 54.5204 46.2074 54.4643 45.9579 54.3477C45.7083 54.2311 45.4815 54.0562 45.2913 53.8339C45.1012 53.6115 44.9515 53.3462 44.8516 53.0541C44.7516 52.7619 44.7033 52.4491 44.7097 52.1344V40.0084C44.7029 39.6935 44.7508 39.3802 44.8506 39.0877C44.9504 38.7951 45.1 38.5294 45.2902 38.3066C45.4804 38.0838 45.7073 37.9087 45.9571 37.7918C46.2069 37.675 46.4744 37.6188 46.7433 37.6268H51.4864C51.755 37.6193 52.0222 37.6758 52.2716 37.7929C52.5211 37.91 52.7476 38.0852 52.9375 38.3079C53.1274 38.5306 53.2766 38.7962 53.3762 39.0885C53.4758 39.3808 53.5237 39.6938 53.5169 40.0084V52.1344Z" fill="white"/>
<path d="M67.7426 35.3616H62.9995C61.9486 35.3673 60.9422 35.8588 60.1991 36.729C59.456 37.5993 59.0364 38.778 59.0315 40.0087V52.1347C59.0257 52.7469 59.1243 53.3542 59.3217 53.9211C59.5191 54.488 59.8111 55.003 60.1807 55.4359C60.5504 55.8687 60.9901 56.2108 61.4742 56.4419C61.9582 56.673 62.4768 56.7886 62.9995 56.7818H67.7426C68.7935 56.7761 69.7999 56.2846 70.543 55.4144C71.2861 54.5441 71.7057 53.3654 71.7106 52.1347V40.0087C71.7164 39.3965 71.6178 38.7892 71.4204 38.2223C71.223 37.6554 70.931 37.1404 70.5613 36.7075C70.1917 36.2747 69.752 35.9326 69.2679 35.7015C68.7839 35.4704 68.2653 35.3548 67.7426 35.3616ZM69.7762 52.1347C69.7826 52.4493 69.7343 52.7622 69.6343 53.0543C69.5344 53.3465 69.3847 53.6118 69.1946 53.8341C69.0044 54.0565 68.7776 54.2313 68.528 54.348C68.2785 54.4646 68.0112 54.5207 67.7426 54.5127H62.9995C62.7311 54.5202 62.4642 54.4638 62.215 54.3469C61.9658 54.23 61.7394 54.0551 61.5496 53.8328C61.3597 53.6105 61.2104 53.3454 61.1106 53.0535C61.0108 52.7616 60.9626 52.449 60.969 52.1347V40.0087C60.9622 39.6941 61.0101 39.3811 61.1097 39.0888C61.2093 38.7965 61.3585 38.5309 61.5484 38.3082C61.7383 38.0855 61.9648 37.9103 62.2143 37.7932C62.4637 37.6761 62.7309 37.6196 62.9995 37.6271H67.7426C68.0115 37.6191 68.279 37.6752 68.5288 37.7921C68.7786 37.909 69.0055 38.0841 69.1957 38.3069C69.3859 38.5296 69.5355 38.7954 69.6353 39.0879C69.7351 39.3805 69.783 39.6938 69.7762 40.0087V52.1347Z" fill="white"/>
<path d="M14.1306 10.3146C14.2444 10.4044 14.3816 10.4442 14.5181 10.4272C14.7072 10.4441 14.8956 10.3865 15.0535 10.2634C15.2114 10.1404 15.3295 9.95904 15.3892 9.74824C16.3564 7.02534 18.8705 6.89827 18.9697 6.89827C19.2262 6.89827 19.4723 6.77893 19.6536 6.5665C19.835 6.35407 19.9369 6.06596 19.9369 5.76554C19.9369 5.46512 19.835 5.17701 19.6536 4.96458C19.4723 4.75215 19.2262 4.63281 18.9697 4.63281C18.7744 4.63281 15.0978 4.74536 13.647 8.82609C13.5952 8.961 13.5666 9.10654 13.5629 9.25439C13.5592 9.40224 13.5804 9.5495 13.6253 9.68775C13.6702 9.82599 13.738 9.95251 13.8247 10.0601C13.9114 10.1676 14.0153 10.2541 14.1306 10.3146Z" fill="white"/>
<path d="M33.29 52.3602H33.7891C34.0456 52.3602 34.2916 52.2408 34.473 52.0284C34.6544 51.816 34.7563 51.5279 34.7563 51.2275C34.7563 50.927 34.6544 50.6389 34.473 50.4265C34.2916 50.2141 34.0456 50.0947 33.7891 50.0947H33.3055C32.7422 50.1004 32.2033 50.365 31.8049 50.8315C31.4066 51.2981 31.1806 51.9292 31.1758 52.5889V53.6091C31.1814 54.2682 31.4077 54.8984 31.806 55.3641C32.2043 55.8299 32.7427 56.094 33.3055 56.0996H33.7891C34.0454 56.0987 34.2909 55.979 34.4721 55.7668C34.6533 55.5546 34.7555 55.267 34.7563 54.9669C34.739 54.6732 34.6315 54.3967 34.4537 54.1886C34.276 53.9804 34.0399 53.8545 33.7891 53.8342H33.3055C33.2552 53.8308 33.2076 53.8061 33.1717 53.7647C33.1357 53.7233 33.1139 53.668 33.1102 53.6091V52.5889C32.9986 52.4764 33.0947 52.3602 33.29 52.3602Z" fill="white"/>
<path d="M47.9036 38.6471C47.5964 38.5935 47.2829 38.623 46.9871 38.7333C46.6912 38.8436 46.4208 39.0318 46.1966 39.2835C45.9725 39.5351 45.8005 39.8435 45.6939 40.1851C45.5873 40.5266 45.5489 40.8922 45.5816 41.2538C45.5825 41.5539 45.6846 41.8415 45.8658 42.0537C46.047 42.2659 46.2926 42.3856 46.5489 42.3865C46.8002 42.3671 47.037 42.2416 47.2154 42.0333C47.3938 41.825 47.5017 41.5481 47.5192 41.2538V40.9125H47.6153C48.195 41.0287 48.5825 40.5749 48.6786 39.8924C48.8739 39.326 48.4864 38.7596 47.9036 38.6471Z" fill="white"/>
<path d="M64.259 38.6471C63.9519 38.5935 63.6384 38.623 63.3425 38.7333C63.0466 38.8436 62.7763 39.0318 62.5521 39.2835C62.328 39.5351 62.156 39.8435 62.0494 40.1851C61.9428 40.5266 61.9044 40.8922 61.9371 41.2538C61.9371 41.5542 62.039 41.8423 62.2204 42.0548C62.4018 42.2672 62.6478 42.3865 62.9043 42.3865C63.1608 42.3865 63.4069 42.2672 63.5882 42.0548C63.7696 41.8423 63.8715 41.5542 63.8715 41.2538V40.9125H63.9707C64.5504 41.0287 64.9379 40.5749 65.034 39.8924C65.0651 39.6081 65.0021 39.3208 64.858 39.0892C64.7139 38.8577 64.4996 38.6995 64.259 38.6471Z" fill="white"/>
</svg>
