<svg width="80" height="80" viewBox="0 0 80 80" fill="none" xmlns="http://www.w3.org/2000/svg">
<path d="M40.9033 80C51.3557 79.7555 61.2977 75.4339 68.6038 67.9591C75.9098 60.4843 80 50.4495 80 40C80 29.5505 75.9098 19.5157 68.6038 12.0409C61.2977 4.56609 51.3557 0.244479 40.9033 0L38.5275 0C28.1777 0.390448 18.382 4.7742 11.1978 12.2305C4.01359 19.6868 0 29.6355 0 39.9869C0 50.3383 4.01359 60.2869 11.1978 67.7432C18.382 75.1995 28.1777 79.5833 38.5275 79.9737L40.9033 80ZM57.5601 6.73348C57.7881 6.85176 57.9985 6.97881 58.2439 7.10585C58.6589 7.33366 59.0709 7.57023 59.48 7.81556H59.5107C61.6221 9.10329 63.6025 10.594 65.4239 12.2666L53.957 30.2284C54.2361 30.434 54.4854 30.6773 54.6978 30.9512L66.1428 12.9719C66.4408 13.2567 66.7345 13.5502 67.0194 13.8481L54.86 32.9489C54.9665 33.1668 55.0942 33.3737 55.2413 33.5666C55.3073 33.6477 55.3791 33.7238 55.4561 33.7944L56.3898 32.3268C56.3898 32.3268 56.4204 32.2874 56.4336 32.2611L67.6945 14.5753C67.9662 14.8732 68.2336 15.1843 68.501 15.4909L60.006 28.8747C60.1672 29.1708 60.3864 29.4315 60.6504 29.6413L69.1892 16.2357C69.4566 16.5599 69.7108 16.8928 69.9694 17.2258L62.1144 29.523C62.2243 29.5509 62.3325 29.5845 62.4388 29.6238L63.0437 29.8472L70.5524 18.0538C70.8067 18.3999 71.0565 18.7503 71.2932 19.1052L64.1615 30.3072C64.4551 30.438 64.7283 30.6107 64.9724 30.8198L71.8631 19.9945C72.0998 20.3669 72.3321 20.748 72.5512 21.1292L49.8103 56.8468L49.8498 56.895C50.0618 57.1442 50.2455 57.416 50.3977 57.7055L67.8961 30.2546C67.6726 29.8165 67.9706 29.7246 68.0232 29.1463C68.0627 28.7082 68.8999 28.1737 69.3996 27.8933L73.1123 22.0667C73.3315 22.4697 73.5507 22.8816 73.7391 23.289L70.6445 28.1518L70.0878 28.9842L69.6495 29.7158C69.8023 30.0167 70.0284 30.2743 70.307 30.4649L74.2257 24.3097C74.4273 24.7478 74.6202 25.1859 74.8043 25.624L70.9426 31.6872C70.9969 31.9929 71.1315 32.2786 71.3327 32.5152C71.3742 32.5688 71.4109 32.6259 71.4423 32.6861L75.2207 26.7236C75.4004 27.1924 75.567 27.6699 75.7248 28.1474L65.8447 43.6603C66.0463 43.9494 66.2436 44.2385 66.4233 44.5364L69.6845 39.4283L70.3201 38.4251L76.1018 29.3522C76.2508 29.8647 76.3955 30.3773 76.5401 30.8986L71.3151 39.0691C71.5562 39.2487 71.8148 39.4327 72.091 39.6298L76.8294 32.1822C76.9478 32.7474 77.053 33.3213 77.145 33.8952L73.1036 40.2475C73.3867 40.4033 73.6795 40.5408 73.9802 40.6593L77.3554 35.3584C77.4343 35.9936 77.5001 36.6333 77.5439 37.2773L75.1637 41.0229C75.5133 41.0915 75.8683 41.1282 76.2245 41.1325L77.6272 38.942C77.6272 39.2969 77.6535 39.643 77.6535 39.9978C77.6535 40.3527 77.6535 40.7732 77.6228 41.1631L77.6009 41.1938H77.6228C77.4117 47.6072 75.565 53.8605 72.258 59.3607C68.951 64.8609 64.2931 69.4258 58.7261 72.6225L62.544 66.6207L63.6837 64.842L65.8754 61.403C65.839 60.9229 65.7627 60.4467 65.6474 59.9792L57.021 73.525L57.2007 73.4549C51.6806 76.3001 45.54 77.7311 39.3301 77.6194C33.1201 77.5078 27.035 75.857 21.6209 72.8153L30.5498 58.7963C30.5924 58.5869 30.5779 58.3698 30.5077 58.1678C30.4375 57.9659 30.3143 57.7865 30.1509 57.6485L20.7792 72.3378C20.4417 72.1362 20.1042 71.8997 19.7711 71.7069L29.1559 56.952C28.8714 56.8053 28.5787 56.6751 28.2792 56.5621L18.9645 71.1943C18.6358 70.9709 18.3158 70.7563 17.9914 70.5022L27.1308 56.1459L26.219 55.7998L17.22 69.9326C16.9043 69.6917 16.5887 69.4464 16.2819 69.1966L25.0487 55.4274C24.7462 55.3529 24.4087 55.2828 24.0449 55.2171L15.5411 68.5746C15.2387 68.3117 14.9318 68.0532 14.6338 67.7816L22.7474 55.0244C22.4154 54.9771 22.1077 54.8234 21.8707 54.5863L13.928 67.1069C13.6358 66.8149 13.3436 66.5228 13.0514 66.2308L21.2614 53.3421C21.1543 52.9831 20.9836 52.6463 20.7573 52.3476L12.6656 65.0742C12.7804 65.3796 12.8397 65.703 12.841 66.0292C12.4026 65.5692 11.9643 65.1005 11.5523 64.6142L19.679 51.8613C19.3289 51.8299 18.9807 51.7802 18.6358 51.7124L10.9123 63.8563C10.6449 63.5321 10.3863 63.1948 10.132 62.8662L17.7854 50.8406L17.6977 50.7574C17.4567 50.5339 17.2594 50.3193 17.0753 50.1791L9.51398 62.0426C9.26413 61.6965 9.0099 61.3504 8.76881 60.9956L16.0671 49.5351C15.7368 49.4275 15.393 49.3671 15.0458 49.3555L8.19897 60.1062C7.96227 59.7339 7.72995 59.3571 7.5064 58.976L13.6957 49.2591C13.3485 49.2174 13.0044 49.153 12.6656 49.0663L6.96725 58.0428C5.32754 55.0468 4.10496 51.841 3.33343 48.5143C3.46931 48.6326 3.6052 48.7465 3.74547 48.8867L5.11746 46.7357C5.02522 46.5932 4.89243 46.4816 4.73619 46.4153C4.57995 46.3489 4.40741 46.3308 4.24079 46.3633L3.22385 47.9579C3.03974 47.1022 2.88487 46.2362 2.75921 45.3601C3.02659 44.8563 3.40795 44.3218 3.5789 44.0195C3.74985 43.7172 3.67095 43.6077 3.50438 43.5245L2.68907 44.8037C2.4797 43.2058 2.37282 41.5962 2.36909 39.9847C2.36909 39.5466 2.36909 39.1567 2.39977 38.7405H2.57949L16.6983 16.5467C16.514 16.2718 16.2825 16.0315 16.0145 15.837L11.1928 23.4335L10.8027 24.0513L2.47429 37.1108C2.54442 36.2346 2.63647 35.319 2.76798 34.434L9.93479 23.1707C9.78802 22.856 9.66067 22.5327 9.55343 22.2025C9.53515 22.1488 9.52482 22.0927 9.52275 22.036L3.237 31.9106C3.45616 30.9205 3.70602 29.9436 3.9997 28.9886C4.03477 28.8747 4.06545 28.7651 4.1049 28.6556C4.17504 28.4278 4.25832 28.2175 4.33284 27.9766L8.9836 20.6736C8.74412 20.4693 8.46286 20.3198 8.15952 20.2355H8.12445L6.73054 22.4259C9.25997 17.7177 12.7534 13.5948 16.9832 10.3258L15.734 12.2885L15.0326 13.3925C15.3705 13.4834 15.7175 13.5363 16.0671 13.5502L19.0917 8.80127C21.4544 7.21804 23.9897 5.9085 26.6486 4.89787C26.6502 4.91243 26.6502 4.92712 26.6486 4.94168L26.6837 4.88473C27.2798 4.65692 27.8847 4.44663 28.4984 4.24511L26.6223 7.18909C26.8853 7.48699 26.9072 8.06528 26.7976 8.70489L29.8923 3.82892C30.449 3.67559 31.01 3.53102 31.5755 3.39083L25.6316 12.7397C25.6694 12.9775 25.7311 13.2109 25.8157 13.4363L25.9823 13.9401L32.8905 3.11922C33.4121 3.01845 33.9425 2.92207 34.4773 2.84322L26.5083 15.3639C26.6398 15.7144 26.7889 16.0867 26.9467 16.4504L35.7134 2.68989C36.2087 2.62855 36.7084 2.58474 37.2125 2.5497L27.5691 17.6902C27.7348 17.9899 27.9446 18.2631 28.1915 18.5006L38.396 2.47084C38.8738 2.47084 39.3516 2.44017 39.8294 2.43579L33.2193 12.8186C33.8768 12.4812 34.1617 11.7759 35.0077 11.5569L35.1786 11.5262L40.9559 2.45332C46.5522 2.57762 52.0499 3.95016 57.0473 6.47062C57.2226 6.57138 57.3979 6.64148 57.5689 6.73348H57.5601Z" fill="white"/>
<path d="M61.031 14.9915L50.9492 30.8198C51.2517 31.1308 51.484 31.3236 51.7601 31.5689L52.6368 30.1714L52.9743 29.6413L63.249 13.5107C62.9391 13.7534 62.6462 14.0168 62.3723 14.2993C62.3328 14.422 61.7718 15.101 61.294 15.0572C61.2017 15.0617 61.1103 15.0388 61.031 14.9915Z" fill="white"/>
<path d="M49.0687 30.2894C49.4326 30.4603 49.6999 30.1098 50.1032 30.1755L54.6575 23.0215L53.2724 23.2931L48.832 30.2719C48.9679 30.2281 48.9197 30.2281 49.0687 30.2894Z" fill="white"/>
<path d="M53.2402 31.0342L52.4688 32.2433C52.5452 32.3278 52.61 32.4221 52.6616 32.5237C52.8253 32.7837 53.0261 33.0184 53.2578 33.2203L54.0818 31.906C53.8358 31.5839 53.5534 31.2914 53.2402 31.0342Z" fill="white"/>
<path d="M50.892 23.0742L43.3789 34.872C43.8597 34.8384 44.3318 34.7275 44.7772 34.5435L51.8213 23.4729L51.3523 23.5517C51.2674 23.3385 51.1021 23.167 50.892 23.0742Z" fill="white"/>
<path d="M42.036 34.8814L44.6967 30.6669C44.3636 30.6669 43.82 30.6363 43.2853 30.6669L41.3259 33.7336C41.2952 34.2812 41.2952 34.7587 42.036 34.8814Z" fill="white"/>
<path d="M49.1853 23.6133C49.0423 23.6909 48.9034 23.7757 48.7689 23.8674C48.2298 24.2485 47.0726 25.243 46.8315 25.7424C46.6693 26.18 46.3592 26.5473 45.9548 26.7807C45.7225 26.899 45.0781 28.7477 45.0781 29.0369C45.0855 29.3416 45.1089 29.6458 45.1483 29.9481L49.1853 23.6133Z" fill="white"/>
<path d="M55.9799 18.9788C56.3418 18.9087 56.7078 18.8619 57.0757 18.8386L59.6225 14.8432L60.2843 13.8006L61.652 11.6539C61.2784 11.4847 60.8949 11.3384 60.5035 11.2158L55.5547 19.0139C55.6973 19.0179 55.8399 19.0062 55.9799 18.9788Z" fill="white"/>
<path d="M47.7335 20.9579C47.77 20.9601 47.8066 20.9601 47.8431 20.9579L55.3606 9.15137C54.6822 9.29823 54.0529 9.61649 53.5327 10.0757L47.2031 20.0117C47.2557 20.6338 47.3565 20.9579 47.7335 20.9579Z" fill="white"/>
<path d="M49.6901 20.2397C49.7558 20.3449 49.9619 20.7479 50.2249 21.1685L53.2275 16.4546L54.1041 15.0571L57.2821 10.076L57.1681 10.0322C56.6114 9.75181 58.527 9.15601 56.6816 9.07715L49.5586 20.266C49.7076 20.2003 49.6463 20.174 49.6901 20.2397Z" fill="white"/>
<path d="M55.2812 15.4817C54.593 16.739 54.3563 16.9756 54.593 17.5144C54.6607 17.6958 54.7092 17.8837 54.7377 18.0752L59.4191 10.724L58.2268 10.3779L55.4302 14.7589C55.5837 14.7851 55.5749 14.9472 55.2812 15.4817Z" fill="white"/>
<path d="M73.822 44.9135L75.3737 42.4952C75.1851 42.2203 74.9644 41.9688 74.7162 41.7461L71.7969 46.3285C72.5859 45.7284 73.2609 45.2815 73.822 44.9135Z" fill="white"/>
<path d="M69.9202 49.2674L54.5039 73.472C54.7785 73.6642 55.1026 73.7737 55.4376 73.7874L65.3177 58.2658L67.7242 54.4851L71.2835 48.895C71.2039 48.8787 71.1219 48.8787 71.0424 48.895C70.6479 49.0177 70.2797 49.1535 69.9202 49.2674Z" fill="white"/>
<path d="M67.5752 48.9434L53.3906 71.2203C53.5078 71.4156 53.5922 71.6287 53.6405 71.8512C53.6764 72.0335 53.7232 72.2134 53.7807 72.3901L68.4212 49.3946C68.1086 49.3102 67.8193 49.1559 67.5752 48.9434Z" fill="white"/>
<path d="M69.5009 47.7048L73.6651 41.1816C73.5858 41.1683 73.5044 41.1746 73.4281 41.1997C73.3517 41.2249 73.2826 41.2683 73.2268 41.3262C73.1031 41.4368 72.9535 41.5145 72.7919 41.5521C72.6302 41.5896 72.4617 41.5857 72.3019 41.5408L68.1289 48.1122C68.6069 48.0595 69.0716 47.9215 69.5009 47.7048Z" fill="white"/>
<path d="M52.6088 70.2346L66.7496 48.0277C66.5742 47.7911 66.3726 47.5107 66.1447 47.1865L52.0039 69.4022C52.166 69.7063 52.3696 69.9864 52.6088 70.2346Z" fill="white"/>
<path d="M71.1761 41.0709C70.9032 40.903 70.6502 40.7045 70.4222 40.4795L67.082 45.7366C67.2514 46.0874 67.3978 46.4489 67.5204 46.8187L71.1761 41.0709Z" fill="white"/>
<path d="M64.8266 45.2461L51.5625 66.0774C51.6912 66.5562 51.7589 67.0492 51.7641 67.545L65.4052 46.1179L64.8266 45.2461Z" fill="white"/>
<path d="M64.1312 44.1378C63.9384 43.8355 63.7499 43.5333 63.5702 43.2354L51.2967 62.5114C51.2612 62.6429 51.2034 62.7674 51.1258 62.8794C50.8321 63.2693 50.9329 63.8607 51.1258 64.5529L64.1312 44.1378Z" fill="white"/>
<path d="M65.0819 42.6399L70.1052 34.7542C69.82 34.6142 69.5273 34.4899 69.2285 34.3818L64.4375 41.8732C64.6523 42.1142 64.8671 42.3726 65.0819 42.6399Z" fill="white"/>
<path d="M68.812 32.7874C68.8909 32.3493 68.9961 31.9638 68.9829 31.9112C68.882 31.7018 68.7617 31.5024 68.6235 31.3154L62.8594 40.3489C63.1161 40.5471 63.3606 40.7607 63.5914 40.9885L68.812 32.7874Z" fill="white"/>
<path d="M62.8969 42.0785C62.6996 41.7193 62.5243 41.3863 62.384 41.1016L50.9609 59.0371C51.0983 59.4555 51.2067 59.8829 51.2853 60.3163L62.8969 42.0785Z" fill="white"/>
<path d="M49.6188 53.1538C49.6534 53.1995 49.6787 53.2516 49.6933 53.3071C49.7985 53.7802 49.2812 54.5688 49.2812 55.4625L60.4457 37.9038L59.42 37.7373L49.6188 53.1538Z" fill="white"/>
<path d="M62.2917 35.0466L64.1547 32.1289C64.0209 32.2341 63.8621 32.3027 63.6938 32.3281C63.5255 32.3534 63.3535 32.3346 63.1947 32.2735L62.9799 32.1815L61.2266 34.9677C61.7964 34.8495 62.112 34.8889 62.2917 35.0466Z" fill="white"/>
<path d="M47.9313 52.5281C48.0372 52.6849 48.1909 52.8032 48.3697 52.8654L58.1358 37.5322L57.1101 37.3613L48.3302 51.17C48.8343 51.2576 47.5763 52.0287 47.9313 52.5281Z" fill="white"/>
<path d="M59.6031 35.2536L61.8606 31.7051C61.6074 31.6371 61.342 31.6281 61.0847 31.6788L60.7034 31.7445L58.6914 34.9338C58.9572 35.1279 59.2743 35.2392 59.6031 35.2536Z" fill="white"/>
<path d="M59.0834 32.0684C58.2944 32.283 57.6106 32.6072 57.6501 33.111C57.6767 33.403 57.7554 33.6879 57.8824 33.9522L59.0834 32.0684Z" fill="white"/>
<path d="M45.3867 51.8083C45.9215 51.6594 46.3817 51.5323 46.7543 51.4403L55.8674 37.1235C55.4553 37.049 55.1529 36.992 55.0433 36.957C54.9749 36.9479 54.9056 36.9479 54.8373 36.957C54.4734 36.9876 54.3989 37.2768 54.3989 37.6097L53.8554 38.4859L45.3867 51.8083Z" fill="white"/>
<path d="M51.68 37.8906L42.418 52.4616C42.7993 52.4134 43.2289 52.3345 43.7023 52.2338L52.6488 38.1885C52.3288 38.1141 52.0088 37.9958 51.68 37.8906Z" fill="white"/>
<path d="M50.091 36.9488C50.1537 36.6321 50.2386 36.3203 50.3452 36.0156L39.9961 52.2645C40.3124 52.3922 40.6466 52.4705 40.9867 52.4967L50.5863 37.4219C50.2839 37.2379 50.091 37.0933 50.091 36.9488Z" fill="white"/>
<path d="M48.5073 34.9021L38.3203 50.8925C38.557 51.1509 38.7586 51.3875 39.0041 51.6022L49.6075 34.9547C49.2443 34.8924 48.8748 34.8748 48.5073 34.9021Z" fill="white"/>
<path d="M45.7067 35.2971L36.7734 49.3205C36.9859 49.57 37.2144 49.8056 37.4572 50.0258L46.9823 35.0693C46.5264 35.1438 46.1056 35.2183 45.7067 35.2971Z" fill="white"/>
<path d="M42.5698 36.2303L36.1306 46.3414C36.071 46.924 36.071 47.5112 36.1306 48.0938L44.0207 35.6914C43.5235 35.832 43.0383 36.0122 42.5698 36.2303Z" fill="white"/>
<path d="M36.1289 44.129L38.9255 39.748C37.6719 40.817 36.1552 41.7808 36.1289 44.129Z" fill="white"/>
<path d="M7.67101 36.9346C7.52805 37.0272 7.4067 37.1495 7.31519 37.2931C7.22367 37.4367 7.16414 37.5983 7.14062 37.7669L7.67101 36.9346Z" fill="white"/>
<path d="M27.6698 67.028C28.2397 66.695 28.3536 65.5165 28.3712 64.3994L26.2891 67.6676C26.8195 67.4661 27.3279 67.2207 27.6698 67.028Z" fill="white"/>
<path d="M39.8859 6.34766L36.6992 11.3507C37.1143 11.268 37.5053 11.0928 37.8433 10.8381C38.7857 10.1634 39.1627 7.74955 39.8859 6.34766Z" fill="white"/>
<path d="M8.28057 51.9924L7.23733 53.6265L6.38696 54.9408C6.38294 55.4683 6.42991 55.995 6.52722 56.5135L11.4629 48.7637C10.9492 48.7666 10.4494 48.9306 10.0339 49.2324L8.28057 51.9924Z" fill="white"/>
<path d="M7.91511 50.3411C7.77282 50.2642 7.64159 50.1684 7.52499 50.0563C7.33213 49.8636 7.02967 50.2885 6.74037 50.398L6.21875 51.2217C6.51039 51.3795 6.82818 51.4834 7.15679 51.5283L7.91511 50.3411Z" fill="white"/>
<path d="M21.7347 22.8555L20.1172 25.4095H20.2618C21.0991 25.208 21.2174 25.0503 21.178 25.449C21.1721 25.5031 21.1589 25.5562 21.1385 25.6067L21.8486 24.4939C21.9554 24.0774 21.9733 23.643 21.9012 23.2191C21.8633 23.0906 21.8072 22.9681 21.7347 22.8555Z" fill="white"/>
<path d="M18.4298 28.0374L17.7109 29.1633C18.386 28.7252 19.2583 28.1075 19.0259 27.9016C18.7936 27.6957 18.6227 27.9279 18.4298 28.0374Z" fill="white"/>
<path d="M5.41249 49.1627C5.28098 49.0795 5.25468 48.9218 5.26345 48.7246L4.60156 49.7673L5.2766 50.4857L5.83767 49.6096C5.72349 49.4367 5.57953 49.2854 5.41249 49.1627Z" fill="white"/>
<path d="M20.2355 21.2119L17.6055 25.3256C17.9211 25.3256 18.3068 25.3606 18.7013 25.3957L20.9193 21.891C20.6782 21.6544 20.4284 21.4178 20.2355 21.2119Z" fill="white"/>
<path d="M17.235 26.3724C17.1824 26.3024 17.1255 26.241 17.0729 26.1797L15.0039 29.4303C15.4159 29.2332 15.8236 29.1237 15.92 29.0492C16.0165 28.9747 16.2225 29.0492 16.2663 29.2332L17.4016 27.4502C17.3771 27.4122 17.3551 27.3727 17.3359 27.3319C17.1781 26.9507 17.5769 26.8105 17.235 26.3724Z" fill="white"/>
<path d="M6.72436 40.2083L7.06626 39.6738C7.13772 39.1116 7.15534 38.5439 7.11886 37.9784C7.10976 37.91 7.10976 37.8408 7.11886 37.7725L6.24219 39.1437C6.53226 39.4245 6.70463 39.8051 6.72436 40.2083Z" fill="white"/>
<path d="M19.4057 18.5186L7.67578 36.9184C8.21492 36.5861 8.77747 36.2932 9.359 36.0422L19.6818 19.8372C19.6161 19.4035 19.5197 18.9128 19.4057 18.5186Z" fill="white"/>
<path d="M18.6523 15.8631C19.1739 16.4238 20.09 15.2672 20.3311 14.5882C20.3897 14.1901 20.3158 13.7837 20.1207 13.4316L18.6172 15.793L18.6523 15.8631Z" fill="white"/>
<path d="M21.6501 10.9961L20.5938 12.6565C20.8042 12.8405 20.9663 12.9938 20.9663 12.9938C20.9663 12.9938 21.843 12.0738 22.0841 11.7584C22.22 11.5744 21.9789 11.3028 21.6501 10.9961Z" fill="white"/>
<path d="M17.7485 18.9037C17.5441 18.8491 17.3599 18.7365 17.2181 18.5795C17.1259 18.4846 17.0648 18.3639 17.0428 18.2334L4.125 38.5171C4.47048 38.5477 4.81327 38.6034 5.15071 38.6835L17.7485 18.9037Z" fill="white"/>
<path d="M19.5327 12.0953L19.5809 12.0164L20.7644 10.1589C20.3831 9.78652 20.3568 9.93547 20.291 9.125L17.2227 13.944C17.4068 14.1718 17.6128 14.4697 17.8276 14.772L19.5327 12.0953Z" fill="white"/>
</svg>
