<svg width="110" height="63" viewBox="0 0 110 63" fill="none" xmlns="http://www.w3.org/2000/svg">
<path d="M81.9603 2H20.3867V60.9503H81.9603V2Z" stroke="white" stroke-width="3.85219" stroke-miterlimit="10"/>
<path d="M0 17.2432H26.6742C31.6291 17.2432 29.2111 22.6682 34.6021 22.6682C39.9931 22.6682 61.9568 22.5082 67.8829 22.6682C75.8108 22.8805 75.8108 35.6086 67.8829 35.4061C62.3036 35.2591 42.606 35.4061 34.579 35.4061C25.1117 35.4061 25.1117 48.0198 34.579 48.0198H110" stroke="white" stroke-width="1.71208" stroke-miterlimit="10"/>
<path d="M50.9646 20.2831C50.9646 22.8437 48.867 21.9978 46.2772 21.9978C43.6874 21.9978 41.5898 22.8437 41.5898 20.2831C41.5898 19.0539 42.0837 17.8751 42.9627 17.0059C43.8418 16.1367 45.0341 15.6484 46.2772 15.6484C47.5204 15.6484 48.7127 16.1367 49.5917 17.0059C50.4708 17.8751 50.9646 19.0539 50.9646 20.2831Z" fill="white"/>
<path d="M64.7459 20.2831C64.7459 22.8437 62.645 21.9978 60.0585 21.9978C57.472 21.9978 55.3711 22.8437 55.3711 20.2831C55.3711 19.0539 55.8649 17.8751 56.744 17.0059C57.6231 16.1367 58.8153 15.6484 60.0585 15.6484C61.3017 15.6484 62.4939 16.1367 63.373 17.0059C64.252 17.8751 64.7459 19.0539 64.7459 20.2831Z" fill="white"/>
<path d="M90.1997 41.5985C91.2674 41.5994 92.2911 42.0191 93.0461 42.7656C93.801 43.5121 94.2256 44.5243 94.2264 45.5799C94.2264 46.612 93.9258 46.7753 92.958 46.7753C92.6276 46.7753 92.2345 46.746 91.8216 46.7166C91.3327 46.6806 90.7778 46.6414 90.1997 46.6414C89.6216 46.6414 89.07 46.6806 88.5811 46.7166C88.1682 46.746 87.7817 46.7753 87.4448 46.7753C86.4769 46.7753 86.1763 46.612 86.1763 45.5799C86.1772 44.5248 86.6012 43.5131 87.3555 42.7668C88.1097 42.0204 89.1326 41.6003 90.1997 41.5985ZM90.1997 40.9453C88.9571 40.9462 87.7657 41.4349 86.8874 42.3039C86.009 43.173 85.5156 44.3513 85.5156 45.5799C85.5156 47.1216 86.2754 47.4286 87.4448 47.4286C88.2177 47.4286 89.1724 47.2947 90.1997 47.2947C91.227 47.2947 92.1817 47.4286 92.958 47.4286C94.1273 47.4286 94.8871 47.1216 94.8871 45.5799C94.8871 44.3508 94.3932 43.1719 93.5142 42.3028C92.6351 41.4336 91.4429 40.9453 90.1997 40.9453Z" fill="white"/>
<path d="M102.234 41.5985C103.302 41.6003 104.325 42.0203 105.08 42.7666C105.834 43.5129 106.259 44.5245 106.261 45.5799C106.261 46.612 105.957 46.7753 104.989 46.7753C104.659 46.7753 104.266 46.746 103.853 46.7166C103.364 46.6806 102.809 46.6414 102.234 46.6414C101.659 46.6414 101.101 46.6806 100.612 46.7166C100.199 46.746 99.8129 46.7753 99.476 46.7753C98.5081 46.7753 98.2075 46.612 98.2075 45.5799C98.2093 44.5245 98.6341 43.5129 99.3889 42.7666C100.144 42.0203 101.167 41.6003 102.234 41.5985ZM102.234 40.9453C100.991 40.9453 99.7988 41.4336 98.9198 42.3028C98.0407 43.1719 97.5469 44.3508 97.5469 45.5799C97.5469 47.1216 98.3066 47.4286 99.476 47.4286C100.252 47.4286 101.204 47.2947 102.234 47.2947C103.265 47.2947 104.216 47.4286 104.989 47.4286C106.159 47.4286 106.922 47.1216 106.922 45.5799C106.921 44.351 106.427 43.1727 105.548 42.3037C104.669 41.4347 103.477 40.9462 102.234 40.9453Z" fill="white"/>
<path d="M47.6747 32.9891C47.6747 35.5465 45.5771 34.7038 42.9873 34.7038C40.3975 34.7038 38.3164 35.5465 38.3164 32.9891C38.3164 31.7599 38.8103 30.5811 39.6893 29.7119C40.5684 28.8428 41.7606 28.3545 43.0038 28.3545C44.247 28.3545 45.4392 28.8428 46.3183 29.7119C47.1973 30.5811 47.6912 31.7599 47.6912 32.9891H47.6747Z" fill="white"/>
<path d="M61.4646 32.9891C61.4646 35.5465 59.3637 34.7038 56.7772 34.7038C54.1907 34.7038 52.0898 35.5465 52.0898 32.9891C52.0898 31.7599 52.5837 30.5811 53.4627 29.7119C54.3418 28.8428 55.5341 28.3545 56.7772 28.3545C58.0204 28.3545 59.2127 28.8428 60.0917 29.7119C60.9708 30.5811 61.4646 31.7599 61.4646 32.9891Z" fill="white"/>
<path d="M50.9646 45.5799C50.9646 48.1406 48.867 47.2947 46.2772 47.2947C43.6874 47.2947 41.5898 48.1406 41.5898 45.5799C41.5898 44.3508 42.0837 43.1719 42.9627 42.3028C43.8418 41.4336 45.0341 40.9453 46.2772 40.9453C47.5204 40.9453 48.7127 41.4336 49.5917 42.3028C50.4708 43.1719 50.9646 44.3508 50.9646 45.5799Z" fill="white"/>
<path d="M64.7459 45.5799C64.7459 48.1406 62.645 47.2947 60.0585 47.2947C57.472 47.2947 55.3711 48.1406 55.3711 45.5799C55.3711 44.3508 55.8649 43.1719 56.744 42.3028C57.6231 41.4336 58.8153 40.9453 60.0585 40.9453C61.3017 40.9453 62.4939 41.4336 63.373 42.3028C64.252 43.1719 64.7459 44.3508 64.7459 45.5799Z" fill="white"/>
<path d="M78.5388 45.5799C78.5388 48.1406 76.4412 47.2947 73.8515 47.2947C71.2617 47.2947 69.1641 48.1406 69.1641 45.5799C69.1641 44.3508 69.6579 43.1719 70.537 42.3028C71.416 41.4336 72.6083 40.9453 73.8515 40.9453C75.0946 40.9453 76.2869 41.4336 77.1659 42.3028C78.045 43.1719 78.5388 44.3508 78.5388 45.5799Z" fill="white"/>
<path d="M79.5679 6.44824C78.2037 6.44824 77.51 7.23211 76.9022 7.92453C76.3373 8.57775 75.8484 9.11667 74.8607 9.11667C73.8731 9.11667 73.3842 8.56469 72.8193 7.92453C72.2082 7.23211 71.5178 6.44824 70.1535 6.44824C68.7893 6.44824 68.0956 7.23211 67.4845 7.92453C66.9196 8.57775 66.434 9.11667 65.4463 9.11667C64.4586 9.11667 63.9697 8.56469 63.4049 7.92453C62.7938 7.23211 62.1034 6.44824 60.7391 6.44824C59.3749 6.44824 58.6812 7.23211 58.07 7.92453C57.5052 8.57775 57.0196 9.11667 56.0319 9.11667H56.0121C55.0376 9.11667 54.552 8.56142 53.9905 7.92453C53.3827 7.23211 52.689 6.44824 51.3247 6.44824C49.9604 6.44824 49.2667 7.23211 48.6589 7.92453C48.0941 8.57775 47.6052 9.11667 46.6175 9.11667C45.6298 9.11667 45.1409 8.56469 44.576 7.92453C43.9649 7.23211 43.2745 6.44824 41.9103 6.44824C40.546 6.44824 39.8523 7.23211 39.2445 7.92453C38.6797 8.57775 38.1908 9.11667 37.2031 9.11667C36.2154 9.11667 35.7265 8.56469 35.1616 7.92453C34.5505 7.23211 33.8601 6.44824 32.4959 6.44824C31.1316 6.44824 30.4379 7.23211 29.8268 7.92453C29.2619 8.57775 28.7763 9.11667 27.7887 9.11667C26.801 9.11667 26.3121 8.56469 25.7637 7.92453C25.2154 7.28437 24.4424 6.46131 23.1211 6.45151V7.2713C24.089 7.2713 24.5745 7.82981 25.1328 8.46344C25.7439 9.15586 26.4343 9.93973 27.8019 9.93973C29.1694 9.93973 29.8565 9.15586 30.4676 8.46344C31.0325 7.81022 31.5214 7.2713 32.5091 7.2713C33.4968 7.2713 33.9857 7.82328 34.5505 8.46344C35.1583 9.15586 35.8487 9.93973 37.2163 9.93973C38.5839 9.93973 39.2709 9.15586 39.8821 8.46344C40.4469 7.81022 40.9358 7.2713 41.9235 7.2713C42.9112 7.2713 43.4001 7.82328 43.9649 8.46344C44.5727 9.15586 45.2664 9.93973 46.6307 9.93973C47.995 9.93973 48.6887 9.15586 49.2965 8.46344C49.8613 7.81022 50.3502 7.2713 51.3379 7.2713H51.3643C52.3322 7.2713 52.8178 7.82981 53.376 8.46344C53.9872 9.15586 54.6776 9.93973 56.0451 9.93973C57.4127 9.93973 58.0998 9.15586 58.7109 8.46344C59.2758 7.81022 59.7646 7.2713 60.7523 7.2713C61.74 7.2713 62.2256 7.82328 62.7905 8.46344C63.4016 9.15586 64.092 9.93973 65.4595 9.93973C66.8271 9.93973 67.5142 9.15586 68.1253 8.46344C68.6902 7.81022 69.1791 7.2713 70.1667 7.2713C71.1544 7.2713 71.6433 7.82328 72.2082 8.46344C72.816 9.15586 73.5064 9.93973 74.8739 9.93973C76.2415 9.93973 76.9319 9.15586 77.5397 8.46344C78.1046 7.81022 78.5935 7.2713 79.5812 7.2713L79.5679 6.44824Z" fill="white"/>
<path d="M79.5688 56.6845C78.2046 56.6845 77.5109 55.9039 76.9031 55.2115C76.3382 54.5583 75.8493 54.0194 74.8616 54.0194C73.8739 54.0194 73.385 54.5713 72.8202 55.2115C72.2091 55.9039 71.5187 56.6845 70.1544 56.6845C68.7901 56.6845 68.0965 55.9039 67.4853 55.2115C66.9205 54.5583 66.4349 54.0194 65.4472 54.0194C64.4595 54.0194 63.9706 54.5713 63.4058 55.2115C62.7947 55.9039 62.1043 56.6845 60.74 56.6845C59.3757 56.6845 58.682 55.9039 58.0709 55.2115C57.5061 54.5583 57.0205 54.0194 56.0328 54.0194H56.013C55.0385 54.0194 54.5529 54.5746 53.9914 55.2115C53.3835 55.9039 52.6899 56.6845 51.3256 56.6845C49.9613 56.6845 49.2676 55.9039 48.6598 55.2115C48.095 54.5583 47.6061 54.0194 46.6184 54.0194C45.6307 54.0194 45.1418 54.5713 44.5769 55.2115C43.9658 55.9039 43.2754 56.6845 41.9112 56.6845C40.5469 56.6845 39.8532 55.9039 39.2454 55.2115C38.6805 54.5583 38.1917 54.0194 37.204 54.0194C36.2163 54.0194 35.7274 54.5713 35.1625 55.2115C34.5514 55.9039 33.861 56.6845 32.4968 56.6845C31.1325 56.6845 30.4388 55.9039 29.8277 55.2115C29.2628 54.5583 28.7772 54.0194 27.7896 54.0194C26.8019 54.0194 26.313 54.5713 25.7481 55.2115C25.1832 55.8516 24.4565 56.6747 23.1055 56.6845V55.8647C24.0733 55.8647 24.5589 55.3062 25.1172 54.6726C25.7283 53.9802 26.4187 53.1963 27.7863 53.1963C29.1538 53.1963 29.8409 53.9802 30.452 54.6726C31.0169 55.3258 31.5058 55.8647 32.4935 55.8647C33.4811 55.8647 33.97 55.3127 34.5349 54.6726C35.1427 53.9802 35.8331 53.1963 37.2007 53.1963C38.5682 53.1963 39.2553 53.9802 39.8664 54.6726C40.4313 55.3258 40.9202 55.8647 41.9079 55.8647C42.8956 55.8647 43.3844 55.3127 43.9493 54.6726C44.5571 53.9802 45.2508 53.1963 46.6151 53.1963C47.9793 53.1963 48.673 53.9802 49.2808 54.6726C49.8457 55.3258 50.3346 55.8647 51.3223 55.8647H51.3487C52.3166 55.8647 52.8022 55.3062 53.3604 54.6726C53.9715 53.9802 54.6619 53.1963 56.0295 53.1963C57.3971 53.1963 58.0841 53.9802 58.6953 54.6726C59.2601 55.3258 59.749 55.8647 60.7367 55.8647C61.7244 55.8647 62.21 55.3127 62.7748 54.6726C63.3859 53.9802 64.0763 53.1963 65.4439 53.1963C66.8115 53.1963 67.4986 53.9802 68.1097 54.6726C68.6745 55.3258 69.1634 55.8647 70.1511 55.8647C71.1388 55.8647 71.6277 55.3127 72.1926 54.6726C72.8004 53.9802 73.4907 53.1963 74.8583 53.1963C76.2259 53.1963 76.9163 53.9802 77.5241 54.6726C78.0889 55.3258 78.5778 55.8647 79.5655 55.8647L79.5688 56.6845Z" fill="white"/>
</svg>
