<svg width="99" height="70" viewBox="0 0 99 70" fill="none" xmlns="http://www.w3.org/2000/svg">
<path d="M6.789 67.456V29.6296L11.6891 27.9762L25.6052 23.2873L43.2762 17.333L79.7723 29.6296V67.456H83.0887V70.0001H3.53516V67.456H6.789ZM77.2909 67.456V31.4599L43.2911 20.0022L13.0611 30.197L11.4983 30.7248L9.27635 31.4721V67.4682L77.2909 67.456Z" fill="white"/>
<path d="M73.1432 50.4877H13.4258V39.5059H73.1432V50.4877ZM44.9442 47.9405H56.5548V42.0439H44.9442V47.9405ZM42.4539 42.0439H30.8432V47.9405H42.4539V42.0439ZM15.9102 47.9405H28.3529V42.0439H15.9131L15.9102 47.9405ZM70.6528 42.0439H59.0452V47.9405H70.6558L70.6528 42.0439Z" fill="white"/>
<path d="M73.1432 63.1615H13.4258V52.1797H73.1432V63.1615ZM44.9442 60.6174H56.5548V54.7299H44.9442V60.6174ZM42.4539 54.7177H30.8432V60.6296H42.4539V54.7177ZM15.9102 60.6174H28.3529V54.7299H15.9131L15.9102 60.6174ZM70.6528 54.7177H59.0452V60.6296H70.6558L70.6528 54.7177Z" fill="white"/>
<path d="M73.1437 33.5195H64.9062V36.0637H73.1437V33.5195Z" fill="white"/>
<path d="M21.6633 33.5195H13.4258V36.0637H21.6633V33.5195Z" fill="white"/>
<path d="M34.1618 33.5195H26.7266V36.0637H34.1618V33.5195Z" fill="white"/>
<path d="M59.8687 33.5195H52.3828V36.0637H59.8687V33.5195Z" fill="white"/>
<path d="M47.4055 33.5195H39.168V36.0637H47.4055V33.5195Z" fill="white"/>
<path d="M4.04922 66.6183V16.3434L10.1472 14.1459L27.465 7.91382L49.4555 0L94.8728 16.3434V66.6183H99V69.9997H0V66.6183H4.04922ZM91.7849 66.6183V18.7761L49.474 3.54763L11.8545 17.0975L9.90965 17.7989L7.1446 18.7923V66.6345L91.7849 66.6183Z" fill="white"/>
<path d="M86.6247 44.0676H79.4883V29.4717H86.6247V44.0676ZM83.5256 32.845H79.6876V40.6822H83.5293L83.5256 32.845Z" fill="white"/>
<path d="M86.6247 61.094H79.4883V46.498H86.6247V61.094ZM83.5256 49.8713H79.6876V57.7085H83.5293L83.5256 49.8713Z" fill="white"/>
<path d="M86.6261 21.5146H76.375V24.896H86.6261V21.5146Z" fill="white"/>
<path d="M69.8292 21.5146H59.5781V24.896H69.8292V21.5146Z" fill="white"/>
<path d="M22.9816 21.5146H12.7305V24.896H22.9816V21.5146Z" fill="white"/>
</svg>
