<svg width="80" height="111" viewBox="0 0 80 111" fill="none" xmlns="http://www.w3.org/2000/svg">
<path d="M15.0751 84.0647C14.9237 84.0756 14.7717 84.0541 14.6293 84.0016C14.487 83.9492 14.3576 83.867 14.25 83.7607C14.1424 83.6543 14.059 83.5263 14.0055 83.3852C13.952 83.2441 13.9297 83.0933 13.9399 82.9429V44.9556C13.965 44.717 14.0429 44.4868 14.168 44.2815L23.4512 31.1153C23.5705 30.9346 23.7429 30.7947 23.9451 30.7147C24.1472 30.6346 24.3692 30.6182 24.581 30.6676C25.939 30.8941 27.6365 31.2311 27.6365 31.2311H27.7532C33.8642 32.9164 38.1662 37.8616 38.8452 43.8181C38.8452 44.1551 38.9566 44.4922 38.9566 44.8292C39.3166 51.4808 38.9377 58.1516 37.8267 64.7208L37.1371 69.2342C36.9916 70.1435 36.5236 70.9713 35.8174 71.5681C35.1112 72.1649 34.2134 72.4915 33.286 72.4889H31.0368C30.7371 72.4889 30.4497 72.3707 30.2378 72.1603C30.026 71.95 29.9069 71.6646 29.9069 71.3671C29.9069 71.0696 30.026 70.7843 30.2378 70.5739C30.4497 70.3635 30.7371 70.2454 31.0368 70.2454H33.2966C33.6812 70.2495 34.0542 70.1152 34.3468 69.8673C34.6393 69.6195 34.8316 69.2748 34.888 68.8971L35.5458 64.3995C36.6031 57.9749 36.9836 51.4585 36.6809 44.9556C36.7136 44.6918 36.6883 44.4241 36.6067 44.1709C36.0444 39.2257 32.1932 34.9545 27.2122 33.4904C26.9841 33.4904 25.9656 33.2692 24.9471 33.1534L16.3164 45.4033V83.0535C16.2667 83.3421 16.1138 83.6033 15.8858 83.7891C15.6578 83.9748 15.37 84.0727 15.0751 84.0647Z" fill="white"/>
<path d="M8.05147 72.4891H5.79169C4.86429 72.4917 3.96649 72.1651 3.26029 71.5683C2.5541 70.9715 2.08602 70.1437 1.94052 69.2344L1.26153 64.7368C0.150563 58.1676 -0.228351 51.4968 0.131637 44.8452C0.113524 44.5044 0.151144 44.1629 0.243035 43.8341C0.922029 37.8777 5.33549 32.9324 11.335 31.2471H11.4517C11.4517 31.2471 13.0431 31.0207 14.5072 30.6836C14.8002 30.6417 15.0982 30.7129 15.3399 30.8826C15.5816 31.0524 15.7485 31.3076 15.8063 31.5958C15.8641 31.8841 15.8083 32.1833 15.6505 32.432C15.4928 32.6806 15.2449 32.8597 14.9581 32.9324C13.6001 33.1536 12.2421 33.3801 11.9026 33.4907C6.81019 34.9547 3.07572 39.2259 2.50812 44.1711C2.52636 44.438 2.48656 44.7056 2.39142 44.9558C2.03019 51.4589 2.41101 57.9817 3.52661 64.3998L4.2056 68.8974C4.26199 69.2751 4.45424 69.6197 4.7468 69.8676C5.03936 70.1154 5.41242 70.2497 5.797 70.2456H8.05678C8.35644 70.2456 8.64383 70.3638 8.85573 70.5741C9.06763 70.7845 9.18667 71.0698 9.18667 71.3673C9.18667 71.6648 9.06763 71.9502 8.85573 72.1606C8.64383 72.3709 8.35644 72.4891 8.05678 72.4891H8.05147Z" fill="white"/>
<path d="M22.771 110.255H16.2039C14.3524 110.257 12.5727 109.544 11.2419 108.266C9.9111 106.988 9.13371 105.246 9.07443 103.408C8.27873 81.0415 7.26024 45.0765 7.26024 44.7395C7.24997 44.5891 7.27234 44.4383 7.32583 44.2972C7.37933 44.1561 7.4627 44.0281 7.57031 43.9217C7.67792 43.8154 7.80727 43.7332 7.94962 43.6808C8.09197 43.6283 8.244 43.6068 8.39543 43.6177C8.54762 43.6038 8.70103 43.6227 8.84519 43.6731C8.98934 43.7235 9.12082 43.8042 9.23063 43.9097C9.34045 44.0153 9.426 44.1431 9.48144 44.2845C9.53688 44.4259 9.5609 44.5775 9.55185 44.729C9.55185 45.066 10.5703 81.031 11.3607 103.398C11.408 104.656 11.9391 105.849 12.8449 106.73C13.7506 107.612 14.9622 108.116 16.2304 108.138H22.771C24.0448 108.135 25.2671 107.638 26.1762 106.752C27.0853 105.866 27.6091 104.662 27.6354 103.398C28.4311 81.031 29.4496 45.066 29.4496 44.729C29.4692 44.444 29.5971 44.1772 29.8073 43.9822C30.0175 43.7873 30.2945 43.6789 30.5821 43.6789C30.8698 43.6789 31.1467 43.7873 31.3569 43.9822C31.5671 44.1772 31.695 44.444 31.7147 44.729C31.7147 45.066 30.6962 81.031 29.9005 103.398C29.8426 105.236 29.0659 106.98 27.7351 108.26C26.4043 109.54 24.6239 110.256 22.771 110.255Z" fill="white"/>
<path d="M19.4896 110.255C19.3376 110.266 19.1851 110.245 19.0424 110.192C18.8996 110.139 18.77 110.057 18.6623 109.95C18.5546 109.843 18.4713 109.714 18.4182 109.572C18.3651 109.431 18.3433 109.279 18.3544 109.128V83.5068C18.3437 83.3526 18.3651 83.198 18.4172 83.0524C18.4693 82.9068 18.551 82.7735 18.6572 82.6605C18.7634 82.5476 18.8919 82.4576 19.0346 82.396C19.1773 82.3345 19.3313 82.3027 19.4869 82.3027C19.6425 82.3027 19.7965 82.3345 19.9392 82.396C20.0819 82.4576 20.2104 82.5476 20.3166 82.6605C20.4228 82.7735 20.5045 82.9068 20.5566 83.0524C20.6087 83.198 20.6301 83.3526 20.6194 83.5068V109.128C20.6304 109.279 20.6088 109.43 20.5559 109.571C20.5031 109.712 20.4204 109.841 20.3132 109.947C20.2061 110.054 20.0772 110.137 19.9351 110.19C19.793 110.243 19.641 110.266 19.4896 110.255Z" fill="white"/>
<path d="M19.4866 34.6177C13.3703 34.6177 10.543 27.8713 10.543 23.2631C10.5612 22.5106 10.6375 21.7605 10.7711 21.0196C10.809 20.8795 10.8744 20.7483 10.9635 20.6333C11.0525 20.5183 11.1635 20.4219 11.2901 20.3495C11.4167 20.2772 11.5564 20.2303 11.7013 20.2115C11.8461 20.1927 11.9933 20.2024 12.1344 20.2401C12.2754 20.2778 12.4076 20.3427 12.5234 20.4312C12.6392 20.5196 12.7364 20.6298 12.8093 20.7555C12.8822 20.8811 12.9294 21.0198 12.9483 21.1637C12.9672 21.3075 12.9574 21.4536 12.9194 21.5936C12.7892 22.1468 12.7128 22.7112 12.6913 23.2789C12.6913 27.1024 15.0731 32.3847 19.3752 32.3847C23.7887 32.3847 26.0538 27.1182 26.0538 23.2789C26.0323 22.7112 25.9559 22.1468 25.8257 21.5936C25.7637 21.4484 25.7339 21.2917 25.7382 21.1341C25.7425 20.9765 25.7809 20.8216 25.8508 20.68C25.9207 20.5384 26.0204 20.4133 26.1432 20.3133C26.2659 20.2133 26.4089 20.1406 26.5625 20.1002C26.716 20.0598 26.8765 20.0526 27.033 20.0792C27.1896 20.1057 27.3386 20.1653 27.4699 20.254C27.6013 20.3427 27.7119 20.4583 27.7943 20.5932C27.8767 20.728 27.9289 20.8788 27.9475 21.0354C28.1723 21.802 28.2866 22.5963 28.287 23.3948C28.4302 27.8713 25.5976 34.6177 19.4866 34.6177Z" fill="white"/>
<path d="M28.7723 84.6282H10.2061C9.9191 84.6087 9.65029 84.4817 9.45396 84.273C9.25763 84.0643 9.14844 83.7893 9.14844 83.5038C9.14844 83.2182 9.25763 82.9433 9.45396 82.7345C9.65029 82.5258 9.9191 82.3989 10.2061 82.3794H28.7723C28.9238 82.3692 29.0757 82.3914 29.2178 82.4445C29.3599 82.4976 29.4889 82.5804 29.596 82.6872C29.7031 82.794 29.7859 82.9225 29.8387 83.0638C29.8915 83.2051 29.9132 83.356 29.9022 83.5064C29.9008 83.8035 29.7813 84.088 29.5697 84.2981C29.3582 84.5081 29.0716 84.6268 28.7723 84.6282Z" fill="white"/>
<path d="M2.61673 67.4122C2.33965 67.3995 2.07559 67.2917 1.86956 67.1073C1.66353 66.923 1.52827 66.6733 1.48684 66.4011C1.46037 66.2606 1.46297 66.1163 1.49448 65.9768C1.52598 65.8374 1.58573 65.7058 1.67009 65.59C1.75445 65.4742 1.86165 65.3767 1.98518 65.3034C2.10871 65.23 2.24598 65.1824 2.38863 65.1634L8.16539 64.2681C8.30645 64.246 8.45053 64.2517 8.58939 64.2848C8.72824 64.318 8.85916 64.3779 8.97467 64.4613C9.09019 64.5447 9.18802 64.6498 9.2626 64.7708C9.33718 64.8917 9.38704 65.026 9.40933 65.1661C9.43162 65.3061 9.42591 65.4491 9.39252 65.587C9.35913 65.7249 9.29872 65.8548 9.21474 65.9695C9.13075 66.0842 9.02484 66.1813 8.90304 66.2554C8.78124 66.3294 8.64595 66.3789 8.50489 66.4011L2.73343 67.3227C2.72832 67.3492 2.71363 67.3729 2.69214 67.3894C2.67065 67.4059 2.64383 67.414 2.61673 67.4122Z" fill="white"/>
<path d="M35.7887 67.5424H35.5446L30.3408 66.5313C30.0411 66.4719 29.7775 66.2968 29.6079 66.0444C29.4382 65.7921 29.3765 65.4832 29.4363 65.1857C29.4961 64.8882 29.6725 64.6264 29.9267 64.458C30.1809 64.2896 30.492 64.2284 30.7917 64.2877L36.0963 65.2989C36.3944 65.3624 36.6559 65.5387 36.8252 65.7904C36.9946 66.0421 37.0585 66.3494 37.0034 66.6471C36.8984 66.8895 36.7308 67.0999 36.5174 67.2572C36.3041 67.4144 36.0527 67.5128 35.7887 67.5424Z" fill="white"/>
<path d="M25.6001 8.42762C25.4486 8.43781 25.2967 8.41561 25.1546 8.3625C25.0125 8.30939 24.8835 8.22662 24.7764 8.11978C24.6693 8.01294 24.5865 7.88452 24.5337 7.7432C24.4809 7.60187 24.4592 7.45094 24.4702 7.30059C24.4702 6.0435 23.9672 4.8379 23.0719 3.94901C22.1765 3.06011 20.9622 2.56074 19.696 2.56074C18.4217 2.56319 17.1989 3.0604 16.2889 3.9461C15.379 4.8318 14.854 6.03573 14.8263 7.30059C14.837 7.45472 14.8156 7.60937 14.7635 7.75495C14.7114 7.90052 14.6297 8.0339 14.5235 8.14681C14.4173 8.25973 14.2888 8.34975 14.1461 8.4113C14.0033 8.47286 13.8494 8.50462 13.6938 8.50462C13.5382 8.50462 13.3842 8.47286 13.2415 8.4113C13.0988 8.34975 12.9703 8.25973 12.8641 8.14681C12.7579 8.0339 12.6762 7.90052 12.6241 7.75495C12.572 7.60937 12.5506 7.45472 12.5612 7.30059C12.5612 5.45267 13.3006 3.68044 14.6168 2.37377C15.9329 1.06709 17.718 0.333008 19.5793 0.333008C21.4406 0.333008 23.2257 1.06709 24.5418 2.37377C25.8579 3.68044 26.5973 5.45267 26.5973 7.30059C26.6191 7.44191 26.6093 7.58624 26.5689 7.72345C26.5285 7.86065 26.4582 7.9874 26.3632 8.0948C26.2682 8.2022 26.1506 8.28765 26.0188 8.34515C25.8869 8.40264 25.744 8.43079 25.6001 8.42762Z" fill="white"/>
<path d="M28.1205 22.0294H27.8924C25.1342 21.4875 22.328 21.2228 19.5164 21.2394C16.7779 21.2111 14.0444 21.476 11.3631 22.0294C11.1874 22.0735 11.0036 22.076 10.8267 22.0367C10.6498 21.9974 10.4846 21.9173 10.3446 21.8029C10.0881 21.5679 9.92758 21.2473 9.89375 20.9023V15.6358C9.09056 14.9792 8.44138 14.1564 7.99153 13.225C7.54167 12.2935 7.30198 11.2758 7.28917 10.2429C7.28424 9.41163 7.44553 8.58763 7.76369 7.81867C8.08184 7.04971 8.55054 6.35107 9.14262 5.76325C9.7347 5.17542 10.4384 4.7101 11.2129 4.39423C11.9875 4.07836 12.8174 3.91823 13.6547 3.92313C13.8028 3.91977 13.9499 3.94722 14.0866 4.00372C14.2234 4.06021 14.3467 4.1445 14.4486 4.25116C14.5505 4.35782 14.6288 4.48448 14.6785 4.62299C14.7281 4.76151 14.748 4.90881 14.7369 5.05542C14.748 5.20625 14.7262 5.35766 14.673 5.49938C14.6199 5.64111 14.5367 5.7698 14.429 5.87673C14.3213 5.98366 14.1916 6.06631 14.0489 6.11907C13.9061 6.17182 13.7536 6.19344 13.6017 6.18246C13.0681 6.18314 12.54 6.28842 12.0475 6.49225C11.555 6.69608 11.1079 6.99446 10.7319 7.37025C10.3558 7.74604 10.0582 8.19185 9.85614 8.68211C9.65405 9.17237 9.55146 9.69742 9.55426 10.2271C9.58555 10.9748 9.78468 11.7061 10.1371 12.3676C10.4895 13.0291 10.9863 13.6041 11.5912 14.0506C11.7658 14.1561 11.9098 14.3047 12.0092 14.4819C12.1087 14.6592 12.1602 14.8589 12.1588 15.0618V19.5541C14.5565 19.1854 16.9788 18.997 19.405 18.9906C21.8964 18.9958 24.384 19.1841 26.8474 19.5541V15.0618C26.8597 14.8618 26.9171 14.6671 27.0153 14.4921C27.1136 14.3171 27.2502 14.1662 27.415 14.0506C28.6563 13.2606 29.9029 11.686 29.9029 10.2271C29.9057 9.69519 29.8022 9.16799 29.5985 8.676C29.3948 8.18402 29.0948 7.73703 28.7159 7.36089C28.337 6.98475 27.8868 6.68693 27.3913 6.48465C26.8957 6.28238 26.3647 6.17966 25.8289 6.18246C25.6774 6.19265 25.5255 6.17044 25.3834 6.11733C25.2413 6.06423 25.1123 5.98146 25.0052 5.87462C24.8981 5.76778 24.8154 5.63936 24.7625 5.49803C24.7097 5.35671 24.688 5.20577 24.699 5.05542C24.6888 4.9055 24.7111 4.75515 24.7643 4.61447C24.8174 4.47379 24.9003 4.34603 25.0074 4.23978C25.1144 4.13353 25.2431 4.05124 25.3848 3.99844C25.5265 3.94564 25.6779 3.92355 25.8289 3.93366C26.6662 3.92877 27.4962 4.08889 28.2707 4.40476C29.0453 4.72063 29.749 5.18596 30.341 5.77378C30.9331 6.3616 31.4018 7.06024 31.72 7.8292C32.0381 8.59817 32.1994 9.42217 32.1945 10.2535C32.1945 12.3601 30.7251 14.414 29.139 15.6464V20.8181C29.1369 20.9925 29.0913 21.1637 29.0061 21.3163C28.9209 21.4689 28.7989 21.5981 28.651 21.6923C28.6004 21.79 28.5247 21.8727 28.4316 21.9319C28.3384 21.9911 28.231 22.0247 28.1205 22.0294Z" fill="white"/>
<path d="M19.0332 39.783C18.8566 39.7925 18.6807 39.7562 18.5226 39.6777C18.3644 39.5993 18.2296 39.4813 18.1314 39.3354L13.3572 32.9313C13.1894 32.6899 13.1229 32.393 13.172 32.1038C13.2211 31.8146 13.3819 31.5557 13.6201 31.3823C13.8584 31.2088 14.1554 31.1344 14.448 31.1748C14.7406 31.2153 15.0058 31.3674 15.1873 31.5989L19.9615 38.0029C20.1234 38.2484 20.19 38.5439 20.1491 38.8345C20.1081 39.1251 19.9623 39.391 19.7387 39.5829C19.5387 39.7382 19.2856 39.81 19.0332 39.783Z" fill="white"/>
<path d="M19.0302 49.453C19.5927 49.453 20.0487 49.0003 20.0487 48.4418C20.0487 47.8834 19.5927 47.4307 19.0302 47.4307C18.4677 47.4307 18.0117 47.8834 18.0117 48.4418C18.0117 49.0003 18.4677 49.453 19.0302 49.453Z" fill="white"/>
<path d="M19.0302 56.7587C19.5927 56.7587 20.0487 56.3059 20.0487 55.7475C20.0487 55.189 19.5927 54.7363 19.0302 54.7363C18.4677 54.7363 18.0117 55.189 18.0117 55.7475C18.0117 56.3059 18.4677 56.7587 19.0302 56.7587Z" fill="white"/>
<path d="M19.0302 64.0614C19.5927 64.0614 20.0487 63.6087 20.0487 63.0502C20.0487 62.4918 19.5927 62.0391 19.0302 62.0391C18.4677 62.0391 18.0117 62.4918 18.0117 63.0502C18.0117 63.6087 18.4677 64.0614 19.0302 64.0614Z" fill="white"/>
<path d="M19.0302 71.368C19.5927 71.368 20.0487 70.9153 20.0487 70.3569C20.0487 69.7984 19.5927 69.3457 19.0302 69.3457C18.4677 69.3457 18.0117 69.7984 18.0117 70.3569C18.0117 70.9153 18.4677 71.368 19.0302 71.368Z" fill="white"/>
<path d="M19.0302 78.6718C19.5927 78.6718 20.0487 78.219 20.0487 77.6606C20.0487 77.1021 19.5927 76.6494 19.0302 76.6494C18.4677 76.6494 18.0117 77.1021 18.0117 77.6606C18.0117 78.219 18.4677 78.6718 19.0302 78.6718Z" fill="white"/>
<path d="M63.4482 48.8885C64.0107 48.8885 64.4667 48.4358 64.4667 47.8774C64.4667 47.3189 64.0107 46.8662 63.4482 46.8662C62.8857 46.8662 62.4297 47.3189 62.4297 47.8774C62.4297 48.4358 62.8857 48.8885 63.4482 48.8885Z" fill="white"/>
<path d="M63.4482 56.0829C64.0107 56.0829 64.4667 55.6302 64.4667 55.0717C64.4667 54.5133 64.0107 54.0605 63.4482 54.0605C62.8857 54.0605 62.4297 54.5133 62.4297 55.0717C62.4297 55.6302 62.8857 56.0829 63.4482 56.0829Z" fill="white"/>
<path d="M63.4482 63.2723C64.0107 63.2723 64.4667 62.8196 64.4667 62.2612C64.4667 61.7027 64.0107 61.25 63.4482 61.25C62.8857 61.25 62.4297 61.7027 62.4297 62.2612C62.4297 62.8196 62.8857 63.2723 63.4482 63.2723Z" fill="white"/>
<path d="M63.4482 70.3563C64.0107 70.3563 64.4667 69.9036 64.4667 69.3452C64.4667 68.7867 64.0107 68.334 63.4482 68.334C62.8857 68.334 62.4297 68.7867 62.4297 69.3452C62.4297 69.9036 62.8857 70.3563 63.4482 70.3563Z" fill="white"/>
<path d="M63.4482 77.5497C64.0107 77.5497 64.4667 77.097 64.4667 76.5385C64.4667 75.9801 64.0107 75.5273 63.4482 75.5273C62.8857 75.5273 62.4297 75.9801 62.4297 76.5385C62.4297 77.097 62.8857 77.5497 63.4482 77.5497Z" fill="white"/>
<path d="M72.3777 31.5997C73.3962 31.2627 74.3033 30.8098 74.9823 30.5886C75.2042 30.4737 75.3994 30.3141 75.5556 30.1201C75.7118 29.926 75.8255 29.7017 75.8894 29.4615C75.9138 28.972 75.753 28.4911 75.4385 28.1133C73.5129 26.2016 72.8339 23.0575 72.8339 21.9304V21.7092C72.8388 20.9104 72.7244 20.1153 72.4944 19.3498C72.5948 19.18 72.6341 18.9813 72.6058 18.7863V14.1623C74.0752 13.0353 75.4385 11.1288 75.4385 9.2171C75.4231 7.65222 74.7825 6.15744 73.6575 5.06128C72.5325 3.96511 71.0152 3.35724 69.439 3.37128C68.8682 2.34633 68.0303 1.49265 67.013 0.899648C65.9957 0.306649 64.8366 -0.00383581 63.6569 0.000718566C62.4761 -0.0168566 61.3131 0.28827 60.2952 0.882728C59.2773 1.47719 58.4437 2.33809 57.8855 3.37128C54.83 3.70834 52.3368 6.18359 52.3368 9.2171C52.3503 10.1469 52.5702 11.0623 52.981 11.898C53.3918 12.7337 53.9833 13.4691 54.7133 14.0517V18.6547C54.7133 18.8811 54.83 18.9917 54.9414 19.2182C54.6809 20.0576 54.5294 20.9266 54.4905 21.804V22.0305C54.3049 24.312 53.3926 26.4756 51.8859 28.2081C51.7137 28.3842 51.5852 28.5978 51.5107 28.8318C51.4361 29.0658 51.4174 29.3139 51.4562 29.5563C51.5213 29.796 51.6355 30.0197 51.7915 30.2136C51.9476 30.4076 52.1422 30.5675 52.3633 30.6834C53.2079 31.0776 54.078 31.4154 54.9679 31.6945C43.4197 39.4468 47.2709 57.3213 51.1167 68.3336V68.4652C50.7772 70.4876 50.7772 72.847 51.2334 76.5599C52.2519 83.4063 54.2889 96.7885 55.196 102.297C55.4035 103.627 55.8225 104.916 56.4373 106.115C57.912 108.812 60.0604 110.276 62.6649 110.276H64.4791C68.325 110.276 70.0225 107.58 70.7015 105.331C71.1943 104.297 71.5372 103.2 71.72 102.071C72.5157 96.562 74.6641 83.0745 75.5711 76.3334C76.022 73.1735 76.1387 71.0669 75.9106 69.2552C75.9106 69.1394 76.022 69.1394 76.022 69.0288C83.6979 46.5303 79.0404 36.3027 72.3777 31.5997ZM63.5508 35.8551L60.8348 32.4792C61.7325 32.838 62.6893 33.0291 63.6569 33.0428C64.5103 33.0681 65.3597 32.9156 66.1501 32.5951L63.5508 35.8551ZM70.2294 19.5552C70.4495 20.0126 70.5654 20.5125 70.5689 21.0193C67.6749 20.9547 64.8247 20.3042 62.1928 19.1076H63.5508C65.7832 19.1453 68.0122 19.2947 70.2294 19.5552ZM58.3523 19.4446C58.8487 19.8318 59.3817 20.1704 59.9437 20.4558C59.2023 21.519 58.1283 22.3094 56.8882 22.7046C56.8882 22.3676 56.7715 22.0305 56.7715 21.6934C56.7753 20.9678 56.8898 20.2469 57.111 19.5552C57.4346 19.5552 57.8908 19.4446 58.3523 19.4446ZM61.9753 21.467C64.6772 22.5699 67.546 23.2161 70.4628 23.3787C69.8899 26.8599 67.6248 30.794 63.6569 30.794C60.3733 30.794 58.2249 27.9869 57.2913 25.064C59.5882 24.274 61.2857 22.3676 61.9647 21.467H61.9753ZM73.1841 28.9981C72.2191 29.4171 71.1814 29.646 70.1286 29.6722C70.8004 28.7625 71.3697 27.7823 71.8261 26.7493C72.1647 27.5589 72.6184 28.3162 73.1734 28.9981H73.1841ZM54.6178 9.2171C54.6126 8.46445 54.8518 7.73018 55.2999 7.12308C55.748 6.51598 56.3812 6.06836 57.1057 5.84654V6.40479C57.095 6.55891 57.1164 6.71357 57.1685 6.85914C57.2206 7.00471 57.3023 7.1381 57.4085 7.25101C57.5147 7.36392 57.6432 7.45395 57.7859 7.5155C57.9287 7.57705 58.0826 7.60881 58.2382 7.60881C58.3938 7.60881 58.5478 7.57705 58.6905 7.5155C58.8332 7.45395 58.9617 7.36392 59.0679 7.25101C59.1741 7.1381 59.2558 7.00471 59.3079 6.85914C59.36 6.71357 59.3814 6.55891 59.3708 6.40479C59.3957 5.2932 59.8585 4.23559 60.6597 3.45879C61.461 2.68199 62.537 2.24786 63.6569 2.24951C64.2157 2.2362 64.7716 2.33372 65.2919 2.53638C65.8123 2.73903 66.2867 3.04275 66.6873 3.42972C67.088 3.8167 67.4068 4.27915 67.6252 4.79001C67.8435 5.30086 67.957 5.84984 67.959 6.40479C67.9483 6.55891 67.9697 6.71357 68.0218 6.85914C68.0739 7.00471 68.1556 7.1381 68.2618 7.25101C68.3681 7.36392 68.4965 7.45395 68.6392 7.5155C68.782 7.57705 68.9359 7.60881 69.0915 7.60881C69.2471 7.60881 69.4011 7.57705 69.5438 7.5155C69.6865 7.45395 69.815 7.36392 69.9212 7.25101C70.0274 7.1381 70.1091 7.00471 70.1612 6.85914C70.2133 6.71357 70.2347 6.55891 70.2241 6.40479V5.73067C71.0439 5.88689 71.7843 6.31897 72.3206 6.95406C72.8569 7.58916 73.1562 8.38842 73.1681 9.2171C73.1681 10.4547 72.0329 11.9135 70.9031 12.5877C70.7388 12.7038 70.6026 12.8548 70.5044 13.0297C70.4062 13.2046 70.3485 13.399 70.3355 13.5988V17.1958H70.2241C70.1127 17.3064 69.996 17.4223 69.8846 17.4223C67.7732 17.1635 65.6462 17.0509 63.519 17.0853C61.3216 17.0669 59.1261 17.2166 56.9518 17.5329V13.5988C56.9522 13.3962 56.9002 13.1968 56.8009 13.0197C56.7015 12.8427 56.558 12.6939 56.3842 12.5877C55.8539 12.1927 55.4191 11.6851 55.1116 11.102C54.8042 10.5188 54.6318 9.87485 54.6072 9.2171H54.6178ZM55.5143 26.8599C55.9408 27.9419 56.5117 28.9622 57.2118 29.8934C56.1103 29.8344 55.0302 29.5681 54.029 29.1087C54.6657 28.4614 55.1701 27.6977 55.5143 26.8599ZM58.0022 32.5951L62.1928 37.7615L57.7741 43.2703C57.6504 43.4759 57.5743 43.7061 57.5513 43.9444V48.3261H57.4346C56.9816 48.4411 56.503 48.4043 56.0733 48.2214C55.6435 48.0386 55.2866 47.7199 55.0581 47.315C54.8409 46.8823 54.7572 46.3955 54.8176 45.9158C54.878 45.4361 55.0798 44.9848 55.3976 44.6185C55.5047 44.5096 55.5883 44.38 55.6432 44.2379C55.698 44.0957 55.723 43.9438 55.7166 43.7917C55.7102 43.6396 55.6725 43.4904 55.6058 43.3532C55.5392 43.2161 55.445 43.094 55.329 42.9943C55.213 42.8947 55.0778 42.8196 54.9315 42.7738C54.7853 42.7279 54.6311 42.7123 54.4786 42.7278C54.326 42.7433 54.1782 42.7896 54.0444 42.8638C53.9105 42.9381 53.7933 43.0388 53.7001 43.1597C53.1353 43.8155 52.7628 44.6128 52.6234 45.4645C52.484 46.3161 52.5831 47.1895 52.9097 47.9891C52.9927 48.2642 53.1066 48.5292 53.2492 48.7791C54.4958 50.5749 54.0396 52.8237 53.3606 56.7578C53.2492 57.4319 53.1378 58.2166 53.0211 59.1172C52.7983 61.1395 52.3421 62.5984 52.114 63.9519C46.003 43.6074 51.4562 35.8551 58.0022 32.5951ZM53.9282 65.4107C54.4983 63.4605 54.9134 61.4689 55.1695 59.4543C55.2809 58.5537 55.3923 57.769 55.509 57.0949C55.9599 54.3984 56.2994 52.2602 56.0713 50.4643C56.4025 50.5556 56.7465 50.5929 57.0898 50.5749H57.546V87.214H54.9414C54.2624 83.0535 53.6948 79.0088 53.35 76.0859C52.5702 70.693 53.1378 68.56 53.9282 65.4107ZM58.3523 104.973C57.8627 103.973 57.5197 102.909 57.3338 101.813C56.8829 99.0057 56.0872 94.2816 55.2968 89.4523H62.5429V107.885C60.7181 107.896 59.3601 106.995 58.3523 104.973ZM69.6724 101.713C69.5464 102.646 69.28 103.555 68.882 104.409C67.8635 106.769 66.6169 107.78 64.808 107.896V89.4628H71.6139C70.797 94.2711 70.118 99.011 69.6618 101.713H69.6724ZM75.1096 64.626C74.7701 63.046 74.3139 61.366 73.9744 58.8907C73.184 53.8349 73.2955 51.1385 74.2025 48.6632C74.335 48.3723 74.4484 48.0733 74.542 47.7679C74.8675 46.9827 74.9655 46.1229 74.8249 45.2853C74.6843 44.4478 74.3107 43.666 73.7463 43.028C73.5487 42.8122 73.2737 42.6817 72.9804 42.6646C72.687 42.6474 72.3986 42.745 72.1768 42.9363C71.9549 43.1276 71.8173 43.3976 71.7934 43.6883C71.7695 43.9791 71.8612 44.2676 72.0489 44.4921C72.3346 44.829 72.5269 45.2339 72.6069 45.667C72.6869 46.1002 72.6518 46.5466 72.5051 46.9621L72.277 47.415L72.0489 47.6362C71.6608 47.9712 71.1936 48.2031 70.6909 48.3103C70.4007 48.3628 70.1388 48.5162 69.9522 48.743C69.7655 48.9698 69.6663 49.2552 69.6724 49.548C69.6977 49.8259 69.8274 50.0843 70.0358 50.2716C70.2441 50.4589 70.5159 50.5616 70.797 50.5591C71.0198 50.5591 71.1365 50.5591 71.2479 50.4485C70.9084 52.6973 71.0198 55.3938 71.6988 59.3279C71.9561 61.3497 72.3729 63.3483 72.9453 65.3053C73.7357 68.5653 74.3033 70.5718 73.5129 76.0911C73.1734 79.014 72.4944 83.0587 71.9215 87.2193H59.8163V44.3921L68.9616 32.7057C69.0056 32.662 69.039 32.609 69.0592 32.5506C69.0794 32.4922 69.0859 32.4299 69.0783 32.3686C78.1333 36.7504 80.1703 47.8785 75.0778 64.626H75.1096Z" fill="white"/>
</svg>
