<svg width="80" height="80" viewBox="0 0 80 80" fill="none" xmlns="http://www.w3.org/2000/svg">
<path d="M74.9192 59.7562C75.9905 58.8908 76.7653 57.7128 77.1357 56.3863C77.5061 55.0599 77.4537 53.6509 76.9858 52.3556C76.5179 51.0604 75.6577 49.9432 74.525 49.1597C73.3924 48.3762 72.0436 47.9654 70.6665 47.9844C70.4825 47.9844 70.2986 48.0248 70.1257 48.0396C69.6078 46.8432 68.7529 45.8235 67.6652 45.105C66.5775 44.3864 65.3041 44 64.0005 43.993C62.6549 43.9919 61.341 44.4007 60.2336 45.165C59.1262 45.9293 58.2779 47.0129 57.8017 48.2713C56.6287 47.8998 55.3695 47.8998 54.1965 48.2713C53.7222 47.0141 52.8766 45.931 51.7721 45.1657C50.6676 44.4005 49.3564 43.9893 48.0127 43.9869C46.669 43.9845 45.3563 44.391 44.2491 45.1523C43.1418 45.9136 42.2924 46.9937 41.8136 48.2492C40.6324 47.9003 39.3743 47.908 38.1974 48.2713C37.7229 47.0114 36.8755 45.926 35.7684 45.1599C34.6612 44.3938 33.3468 43.9834 32.0004 43.9834C30.6541 43.9834 29.3397 44.3938 28.2325 45.1599C27.1254 45.926 26.278 47.0114 25.8035 48.2713C24.6305 47.8998 23.3713 47.8998 22.1983 48.2713C21.7221 47.0129 20.8738 45.9293 19.7664 45.165C18.659 44.4007 17.3451 43.9919 15.9995 43.993C14.696 44.0005 13.4228 44.387 12.3352 45.1055C11.2476 45.8241 10.3926 46.8435 9.8743 48.0396C9.69404 48.0396 9.50642 47.9844 9.33352 47.9844C7.95641 47.9654 6.60763 48.3762 5.47497 49.1597C4.34232 49.9432 3.48214 51.0604 3.01421 52.3556C2.54628 53.6509 2.49387 55.0599 2.86429 56.3863C3.2347 57.7128 4.0095 58.8908 5.08083 59.7562C3.52762 60.6195 2.23595 61.8856 1.34186 63.4213C0.447771 64.9569 -0.0156502 66.7053 0.000403352 68.4821V78.6648C0.000402011 79.0183 0.140591 79.3574 0.390233 79.6078C0.639874 79.8581 0.978595 79.9992 1.33213 80.0002H78.6679C79.0211 80.0002 79.3598 79.8599 79.6095 79.6101C79.8593 79.3604 79.9996 79.0217 79.9996 78.6685V68.4821C80.0156 66.7053 79.5522 64.9569 78.6581 63.4213C77.764 61.8856 76.4724 60.6195 74.9192 59.7562ZM74.68 54.6649C74.68 55.4558 74.4455 56.2289 74.0061 56.8865C73.5667 57.5441 72.9422 58.0566 72.2115 58.3593C71.4808 58.6619 70.6768 58.7411 69.9011 58.5868C69.1254 58.4325 68.4128 58.0517 67.8536 57.4925C67.2943 56.9332 66.9135 56.2207 66.7592 55.445C66.6049 54.6693 66.6841 53.8653 66.9867 53.1346C67.2894 52.404 67.8019 51.7795 68.4595 51.3401C69.1172 50.9007 69.8903 50.6662 70.6812 50.6662C71.7418 50.6662 72.7589 51.0874 73.5088 51.8374C74.2587 52.5873 74.68 53.6044 74.68 54.6649ZM63.353 62.438C62.5327 61.3305 61.4807 60.4153 60.2702 59.7562C61.1322 59.0422 61.8002 58.1224 62.2126 57.0818C62.7991 57.2478 63.4057 57.3319 64.0152 57.332C64.1991 57.332 64.3831 57.3136 64.5597 57.2989C64.9842 58.2556 65.6267 59.0997 66.4359 59.7636C65.2196 60.417 64.162 61.33 63.3383 62.438H63.353ZM64.0152 46.6674C64.7435 46.673 65.4567 46.8761 66.0786 47.2551C66.7006 47.6341 67.208 48.1747 67.5469 48.8194C66.4872 49.3817 65.5994 50.2202 64.9776 51.2461C64.3559 52.272 64.0233 53.447 64.0152 54.6465C63.5533 54.6492 63.0942 54.5734 62.6577 54.4221C62.6219 53.4745 62.383 52.5456 61.9571 51.6984C61.5313 50.8511 60.9284 50.1051 60.1893 49.511C60.4334 48.6876 60.9378 47.9655 61.6269 47.4528C62.316 46.9401 63.1526 46.6646 64.0115 46.6674H64.0152ZM60.0016 54.6649C60.0024 55.4567 59.7682 56.2309 59.3289 56.8895C58.8895 57.5482 58.2647 58.0618 57.5334 58.3653C56.8021 58.6688 55.9972 58.7486 55.2205 58.5946C54.4438 58.4405 53.7303 58.0596 53.1702 57.5C52.6101 56.9404 52.2285 56.2273 52.0737 55.4508C51.919 54.6743 51.9981 53.8693 52.3009 53.1378C52.6037 52.4062 53.1167 51.7809 53.775 51.3409C54.4333 50.901 55.2073 50.6662 55.9991 50.6662C57.06 50.6662 58.0775 51.0873 58.828 51.8371C59.5785 52.5869 60.0007 53.604 60.0016 54.6649ZM46.1988 57.0818C47.3772 57.4166 48.6256 57.4166 49.804 57.0818C50.2164 58.1224 50.8844 59.0422 51.7464 59.7562C50.1787 60.6166 48.8818 61.8969 48.0014 63.4533C47.1206 61.8959 45.8222 60.6154 44.2527 59.7562C45.1172 59.0437 45.7868 58.1236 46.1988 57.0818ZM48.0014 46.6674C48.8604 46.664 49.6974 46.9393 50.3866 47.4521C51.0758 47.9648 51.5801 48.6873 51.8237 49.511C51.0895 50.1026 50.4902 50.8442 50.0658 51.686C49.6413 52.5279 49.4016 53.4507 49.3625 54.3927C48.4842 54.7035 47.5259 54.7035 46.6476 54.3927C46.6097 53.4455 46.3698 52.5174 45.9441 51.6704C45.5184 50.8234 44.9166 50.0772 44.1791 49.4816C44.4285 48.6637 44.9352 47.948 45.6238 47.441C46.3124 46.934 47.1463 46.6627 48.0014 46.6674ZM42.0344 51.229C42.8645 51.7238 43.4869 52.5029 43.7861 53.4218C44.0853 54.3406 44.041 55.3369 43.6613 56.2255C43.2817 57.1142 42.5925 57.835 41.7218 58.254C40.851 58.6731 39.8577 58.7621 38.9264 58.5044C37.995 58.2467 37.1887 57.6599 36.6572 56.8529C36.1257 56.0458 35.905 55.0733 36.0361 54.1159C36.1673 53.1585 36.6413 52.2812 37.3703 51.6467C38.0992 51.0123 39.0336 50.6639 40 50.6662C40.7171 50.6626 41.4211 50.8574 42.0344 51.229ZM30.196 57.0818C31.3758 57.4159 32.6251 57.4159 33.8049 57.0818C34.2159 58.1232 34.8842 59.0433 35.7473 59.7562C34.1813 60.6176 32.8859 61.8977 32.006 63.4533C31.1245 61.8951 29.8247 60.6145 28.2536 59.7562C29.1167 59.0433 29.785 58.1232 30.196 57.0818ZM32.006 46.6674C32.8655 46.6638 33.703 46.939 34.3928 47.4517C35.0826 47.9644 35.5876 48.687 35.8319 49.511C35.0971 50.1023 34.4971 50.8436 34.072 51.6855C33.6469 52.5274 33.4066 53.4504 33.3671 54.3927C32.488 54.7062 31.5276 54.7062 30.6485 54.3927C30.609 53.4504 30.3687 52.5274 29.9436 51.6855C29.5185 50.8436 28.9185 50.1023 28.1837 49.511C28.4273 48.6873 28.9316 47.9648 29.6208 47.4521C30.31 46.9393 31.1469 46.664 32.006 46.6674ZM27.9998 54.6649C27.9998 55.4558 27.7652 56.2289 27.3258 56.8865C26.8864 57.5441 26.2619 58.0566 25.5312 58.3593C24.8005 58.6619 23.9965 58.7411 23.2208 58.5868C22.4451 58.4325 21.7325 58.0517 21.1733 57.4925C20.614 56.9332 20.2332 56.2207 20.0789 55.445C19.9246 54.6693 20.0038 53.8653 20.3064 53.1346C20.6091 52.404 21.1216 51.7795 21.7792 51.3401C22.4369 50.9007 23.21 50.6662 24.0009 50.6662C25.0612 50.6671 26.0777 51.0887 26.8274 51.8384C27.5772 52.5881 27.9988 53.6047 27.9998 54.6649ZM16.6617 62.438C15.8422 61.3317 14.7898 60.4187 13.5789 59.7636C14.388 59.0997 15.0306 58.2556 15.455 57.2989C15.6353 57.2989 15.8229 57.332 15.9995 57.332C16.609 57.3319 17.2156 57.2478 17.8021 57.0818C18.2141 58.1236 18.8837 59.0437 19.7482 59.7562C18.5366 60.4151 17.4833 61.3303 16.6617 62.438ZM15.9995 46.6674C16.859 46.6638 17.6965 46.939 18.3863 47.4517C19.0762 47.9644 19.5811 48.687 19.8255 49.511C19.084 50.1072 18.4798 50.856 18.0538 51.7067C17.6278 52.5573 17.3902 53.4898 17.357 54.4405C16.9206 54.5922 16.4615 54.6681 15.9995 54.6649C15.9914 53.4654 15.6588 52.2904 15.0371 51.2645C14.4153 50.2386 13.5275 49.4001 12.4679 48.8378C12.8061 48.1912 13.3129 47.6482 13.9347 47.2661C14.5564 46.884 15.2698 46.6771 15.9995 46.6674ZM5.33098 54.6649C5.33171 53.8742 5.56686 53.1014 6.0067 52.4443C6.44654 51.7872 7.07133 51.2753 7.80209 50.9732C8.53285 50.6711 9.33677 50.5924 10.1122 50.7471C10.8877 50.9018 11.5999 51.283 12.1588 51.8423C12.7176 52.4017 13.0981 53.1142 13.2521 53.8898C13.4061 54.6654 13.3267 55.4692 13.0239 56.1997C12.7212 56.9302 12.2086 57.5545 11.5511 57.9937C10.8936 58.4329 10.1206 58.6673 9.32984 58.6673C8.8047 58.6669 8.2848 58.563 7.79982 58.3616C7.31485 58.1602 6.87429 57.8652 6.5033 57.4935C6.13231 57.1219 5.83817 56.6808 5.63765 56.1955C5.43714 55.7101 5.33418 55.19 5.33466 54.6649H5.33098ZM2.66753 68.4821C2.60693 66.6512 3.27444 64.8709 4.52388 63.5312C5.77331 62.1915 7.5028 61.4015 9.33352 61.3344C10.5766 61.358 11.7879 61.7311 12.8289 62.4109C13.8698 63.0908 14.6983 64.0499 15.2196 65.1787C14.8512 66.2436 14.6634 67.3626 14.6641 68.4895V77.3405H2.66753V68.4821ZM17.3349 68.4821C17.2743 66.6512 17.9418 64.8709 19.1913 63.5312C20.4407 62.1915 22.1702 61.4015 24.0009 61.3344C25.8316 61.4015 27.5611 62.1915 28.8105 63.5312C30.06 64.8709 30.7275 66.6512 30.6669 68.4821V77.3331H17.3349V68.4821ZM33.334 68.4821C33.2734 66.6512 33.9409 64.8709 35.1904 63.5312C36.4398 62.1915 38.1693 61.4015 40 61.3344C41.8307 61.4015 43.5602 62.1915 44.8096 63.5312C46.0591 64.8709 46.7266 66.6512 46.666 68.4821V77.3331H33.334V68.4821ZM62.6651 77.3331H49.3331V68.4821C49.2092 66.7143 49.7927 64.9696 50.9552 63.6319C52.1177 62.2942 53.764 61.473 55.5319 61.3491C57.2998 61.2252 59.0446 61.8087 60.3823 62.9711C61.72 64.1336 62.5412 65.7799 62.6651 67.5478C62.6872 67.8588 62.6872 68.1711 62.6651 68.4821V77.3331ZM77.3325 77.3331H65.3322V68.4821C65.3329 67.3553 65.1451 66.2362 64.7767 65.1713C65.298 64.0426 66.1265 63.0834 67.1674 62.4036C68.2084 61.7237 69.4197 61.3506 70.6628 61.3271C72.4935 61.3942 74.223 62.1841 75.4724 63.5239C76.7219 64.8636 77.3894 66.6439 77.3288 68.4748L77.3325 77.3331Z" fill="white"/>
<path d="M39.064 31.6322C39.3131 31.8775 39.6488 32.015 39.9984 32.015C40.3481 32.015 40.6837 31.8775 40.9328 31.6322L55.6959 17.127C57.5647 15.2899 58.6289 12.7868 58.6551 10.1663C58.6813 7.5459 57.6674 5.02199 55.8357 3.1479L55.6959 3.00811C53.7428 1.08964 51.1146 0.0147148 48.3769 0.0147148C45.6392 0.0147148 43.0109 1.08964 41.0579 3.00811L39.9984 4.04183L38.9389 2.99339C36.9859 1.07493 34.3576 0 31.6199 0C28.8822 0 26.254 1.07493 24.301 2.99339C22.4265 4.8312 21.3587 7.33825 21.3325 9.96319C21.3063 12.5881 22.3238 15.116 24.1612 16.9909L24.3047 17.1344L39.064 31.6322ZM26.1882 4.89896C27.6405 3.47208 29.595 2.67257 31.631 2.67257C33.667 2.67257 35.6215 3.47208 37.0738 4.89896L39.0714 6.87811C39.3217 7.1239 39.6586 7.26161 40.0095 7.26161C40.3603 7.26161 40.6972 7.1239 40.9475 6.87811L42.9451 4.89896C44.3974 3.47208 46.352 2.67257 48.3879 2.67257C50.4239 2.67257 52.3784 3.47208 53.8307 4.89896C55.2029 6.23908 55.9866 8.06936 56.0093 9.98723C56.0321 11.9051 55.2921 13.7535 53.9521 15.1258L53.8344 15.2435L39.9984 28.7995L26.1772 15.2325C24.805 13.8923 24.0213 12.0621 23.9985 10.1442C23.9758 8.22633 24.7158 6.37795 26.0558 5.00565L26.1772 4.88425L26.1882 4.89896Z" fill="white"/>
<path d="M10.6726 38.6657C11.0114 38.6638 11.3366 38.5321 11.5813 38.2978L19.3067 31.0507C20.5195 29.9286 21.2389 28.3721 21.3079 26.7213C21.3768 25.0705 20.7896 23.4595 19.6746 22.2402C19.5495 22.1078 19.4269 21.979 19.3067 21.854C18.1475 20.7994 16.6719 20.1582 15.11 20.0305C13.5481 19.9027 11.9878 20.2955 10.6726 21.1476C9.35473 20.2962 7.79226 19.9045 6.22859 20.0336C4.66491 20.1627 3.18783 20.8053 2.02742 21.8613C0.809116 22.9841 0.0861187 24.5444 0.0171461 26.1997C-0.0518265 27.855 0.538862 29.47 1.65954 30.6902C1.78462 30.8226 1.90725 30.9453 2.02742 31.0581L9.7529 38.3051C10.0017 38.5391 10.3311 38.6682 10.6726 38.6657ZM2.67121 26.4597C2.67432 25.96 2.78085 25.4664 2.98408 25.0099C3.18732 24.5535 3.48286 24.144 3.85211 23.8073C4.65941 23.0704 5.71306 22.6617 6.80618 22.6617C7.89931 22.6617 8.95296 23.0704 9.76026 23.8073C10.0066 24.0394 10.3323 24.1686 10.6708 24.1686C11.0092 24.1686 11.3349 24.0394 11.5813 23.8073C12.3886 23.0704 13.4422 22.6617 14.5353 22.6617C15.6285 22.6617 16.6821 23.0704 17.4894 23.8073C17.8381 24.1212 18.1214 24.5006 18.3232 24.924C18.5251 25.3475 18.6415 25.8065 18.6657 26.275C18.69 26.7434 18.6216 27.212 18.4646 27.654C18.3076 28.096 18.065 28.5027 17.7506 28.8509C17.6692 28.9434 17.5819 29.0306 17.4894 29.112L10.6726 35.5056L3.85211 29.112C3.48321 28.7751 3.18791 28.3656 2.9847 27.9092C2.78149 27.4528 2.67476 26.9593 2.67121 26.4597Z" fill="white"/>
<path d="M69.3317 21.1479C68.0149 20.2992 66.4547 19.9091 64.8934 20.0381C63.3321 20.1672 61.8571 20.8082 60.6976 21.8616C59.4767 22.9818 58.7503 24.5408 58.6779 26.1961C58.6054 27.8515 59.1929 29.4679 60.3113 30.6905C60.4364 30.8229 60.5651 30.9456 60.6976 31.0584L68.423 38.3054C68.6694 38.5375 68.9951 38.6667 69.3335 38.6667C69.672 38.6667 69.9977 38.5375 70.244 38.3054L77.9695 31.0584C79.1823 29.9362 79.9017 28.3798 79.9706 26.729C80.0396 25.0782 79.4524 23.4672 78.3374 22.2479C78.2172 22.1154 78.0946 21.9867 77.9695 21.8616C76.8109 20.8051 75.3349 20.162 73.7722 20.0329C72.2095 19.9038 70.648 20.2959 69.3317 21.1479ZM76.1485 29.1123L69.3317 35.5059L62.5112 29.1123C62.1626 28.7985 61.8792 28.4191 61.6774 27.9956C61.4755 27.5722 61.3592 27.1132 61.3349 26.6447C61.3107 26.1763 61.379 25.7077 61.536 25.2657C61.693 24.8237 61.9357 24.417 62.25 24.0688C62.3324 23.9772 62.4196 23.89 62.5112 23.8076C63.3185 23.0706 64.3722 22.662 65.4653 22.662C66.5584 22.662 67.6121 23.0706 68.4194 23.8076C68.6657 24.0397 68.9914 24.1689 69.3299 24.1689C69.6683 24.1689 69.994 24.0397 70.2404 23.8076C71.0487 23.0712 72.1028 22.663 73.1963 22.663C74.2898 22.663 75.3439 23.0712 76.1522 23.8076C76.8549 24.4425 77.2768 25.3303 77.3251 26.2761C77.3734 27.2218 77.0441 28.1481 76.4097 28.8511C76.3286 28.9427 76.2426 29.0299 76.1522 29.1123H76.1485Z" fill="white"/>
</svg>
