<svg width="96" height="99" viewBox="0 0 96 99" fill="none" xmlns="http://www.w3.org/2000/svg">
<path d="M85.7244 38.8502C85.7244 38.5946 85.7244 38.2538 85.6394 37.9983C85.3846 35.5275 84.2802 33.2272 82.6662 31.3528C81.0522 29.4785 78.9285 28.1153 76.55 27.4337H76.4651C76.4651 27.4337 75.8704 27.3485 75.2758 27.2633C76.55 25.389 77.2296 23.1738 77.2296 20.8735C77.2296 20.1919 77.1447 19.5103 76.9748 18.9139H77.8242C77.9092 18.9139 78.0791 18.9139 78.164 18.8287C78.249 18.7435 78.4189 18.7435 78.5038 18.6583C78.5888 18.5731 78.6737 18.4879 78.6737 18.3175C78.7587 18.2323 78.7587 18.0619 78.7587 17.9767C78.7587 16.1024 78.164 14.228 77.0597 12.6945C75.9554 11.1609 74.4263 9.96813 72.6424 9.37175C72.6424 9.11615 72.5575 8.94576 72.3026 8.77536C72.1328 8.60497 71.8779 8.51977 71.6231 8.51977C71.4532 8.51977 71.2833 8.51977 71.1983 8.60497C71.0284 8.69016 70.9435 8.77536 70.8585 8.94576C70.5188 8.94576 70.179 8.86056 69.8392 8.86056C69.4994 8.86056 69.1596 8.86056 68.8198 8.94576C68.7349 8.77536 68.6499 8.69016 68.48 8.60497C68.3101 8.51977 68.2252 8.51977 68.0553 8.43457C67.8004 8.43457 67.6305 8.51977 67.4606 8.69016C67.2907 8.86056 67.2058 9.03096 67.1209 9.28655C65.337 9.88294 63.8079 10.9905 62.7036 12.6093C61.5993 14.228 61.0046 16.0172 61.0896 17.8915C61.0896 17.9767 61.0896 18.1471 61.1745 18.2323C61.2595 18.3175 61.2595 18.4879 61.3444 18.5731C61.4294 18.6583 61.5143 18.7435 61.6842 18.7435C61.7692 18.8287 61.9391 18.8287 62.024 18.8287H62.7885C62.6186 19.5103 62.5337 20.1067 62.5337 20.7883C62.5337 23.0886 63.2133 25.3038 64.4875 27.1781C63.8079 27.2633 63.2982 27.3485 63.2982 27.3485H63.2133C60.8347 28.0301 58.711 29.3081 57.097 31.1824C55.483 33.0568 54.4637 35.3571 54.1239 37.8279C54.1239 38.0835 54.0389 38.4242 54.0389 38.6798C53.6991 44.2177 54.0389 49.8408 54.9734 55.3786L55.568 59.1273C55.6529 59.8941 56.0777 60.5757 56.6723 61.0869C57.2669 61.5981 58.0315 61.8537 58.711 61.8537H60.4949C60.8347 73.2702 61.2595 85.0275 61.5143 91.673C60.3251 91.8433 59.2207 92.4397 58.4562 93.2917C57.6917 94.2289 57.182 95.3365 57.182 96.5292C57.182 97.1256 57.4368 97.722 57.8616 98.148C58.2863 98.574 58.8809 98.8296 59.4756 98.8296H80.4576C81.0522 98.8296 81.6469 98.574 82.0716 98.148C82.4963 97.722 82.7512 97.1256 82.7512 96.5292C82.7512 95.3365 82.2415 94.1437 81.477 93.2065C80.6275 92.2693 79.5232 91.7581 78.3339 91.5878C78.5888 84.9423 79.0135 73.0998 79.3533 61.7685H81.1372C81.9017 61.7685 82.6662 61.5129 83.1759 61.0017C83.7706 60.4905 84.1103 59.8089 84.2802 59.0421L84.8749 55.2934C85.6394 50.0112 85.9792 44.3881 85.7244 38.8502ZM83.7706 38.1687C83.7706 38.4242 83.7706 38.5946 83.8555 38.8502C84.0254 41.8322 83.9405 44.8141 83.7706 47.796L79.778 47.4552C80.0329 39.7874 80.2028 33.7384 80.3727 31.5232C82.1566 33.2272 83.4308 35.6127 83.7706 38.1687ZM68.6499 33.9088C68.8198 34.0791 68.9897 34.2495 69.1596 34.3347C69.3295 34.4199 69.5843 34.5051 69.8392 34.5051C70.094 34.5051 70.2639 34.4199 70.5187 34.3347C70.6886 34.2495 70.9435 34.0791 71.0284 33.9088L74.5113 29.5637L73.9166 41.6618C73.9166 41.747 73.9167 41.747 73.8317 41.8322C73.8317 41.8322 73.7468 41.9174 73.6618 41.9174H66.1864C66.1015 41.9174 66.1015 41.9174 66.0165 41.8322C66.0165 41.8322 65.9316 41.747 65.9316 41.6618L65.337 30.3304L68.6499 33.9088ZM67.5456 29.8193C68.2252 30.16 68.9897 30.2452 69.8392 30.2452C70.5187 30.2452 71.1983 30.16 71.793 29.9044L69.8392 32.4604L67.5456 29.8193ZM67.2058 11.3313V11.9277C67.2058 12.1833 67.2907 12.3537 67.4606 12.5241C67.6305 12.6945 67.8854 12.7797 68.1402 12.7797C68.3951 12.7797 68.6499 12.6945 68.8198 12.5241C68.9897 12.3537 69.0746 12.0981 69.0746 11.9277V10.9053C69.3295 10.9053 69.6693 10.8201 69.9241 10.8201C70.179 10.8201 70.5188 10.8201 70.7736 10.9053V11.9277C70.7736 12.0129 70.7736 12.1833 70.8585 12.2685C70.9435 12.3537 70.9435 12.5241 71.0284 12.6093C71.1134 12.6945 71.1983 12.7797 71.3682 12.7797C71.4532 12.8649 71.6231 12.8649 71.708 12.8649C71.793 12.8649 71.9629 12.8649 72.0478 12.7797C72.1328 12.6945 72.3026 12.6945 72.3876 12.6093C72.4725 12.5241 72.5575 12.4389 72.5575 12.2685C72.6424 12.1833 72.6424 12.0129 72.6424 11.9277V11.3313C73.7468 11.8425 74.6812 12.6093 75.4457 13.5464C76.2102 14.4836 76.635 15.6764 76.7199 16.8692H62.9584C63.1283 15.6764 63.638 14.4836 64.4025 13.5464C65.0821 12.6093 66.1015 11.8425 67.2058 11.3313ZM64.7423 18.9139H74.936C75.1909 19.5955 75.2758 20.1919 75.2758 20.8735C75.2758 24.0258 73.407 28.3709 69.8392 28.3709C66.2714 28.3709 64.4025 23.9406 64.4025 20.8735C64.4025 20.1919 64.4875 19.5103 64.7423 18.9139ZM55.9078 38.9354C55.9078 38.6798 55.9078 38.5094 55.9927 38.2538C56.3325 35.6979 57.6067 33.3124 59.5605 31.6084C59.6455 34.0791 59.8154 40.043 59.9853 47.5404L55.9927 47.8812C55.8228 44.8993 55.8228 41.9174 55.9078 38.9354ZM58.711 60.0645C58.3713 60.0645 58.1164 59.9793 57.8616 59.7237C57.6067 59.5533 57.4368 59.2125 57.4368 58.8717L56.8422 55.123C56.5874 53.3339 56.4175 51.4595 56.1626 49.6704L60.0702 49.3296C60.1552 52.7375 60.2401 56.3158 60.41 59.9793H58.6261V60.0645H58.711ZM80.7974 96.6996C80.7974 96.7848 80.7124 96.87 80.7124 96.9552C80.6275 97.0404 80.5426 97.0404 80.4576 97.0404H70.8585V93.6325H72.0478C72.3027 93.6325 72.4725 93.5473 72.6424 93.2917C72.8123 93.1213 72.8973 92.8657 72.8973 92.6101C72.8973 92.3545 72.8123 92.0989 72.6424 91.9286C72.4725 91.7582 72.2177 91.673 72.0478 91.673H70.8585V66.1136C70.8585 66.0284 70.8585 65.858 70.7736 65.7728C70.6886 65.6876 70.6886 65.5172 70.6037 65.432C70.5187 65.3468 70.4338 65.2616 70.2639 65.2616C70.179 65.1764 70.0091 65.1764 69.9241 65.1764C69.8392 65.1764 69.6693 65.1764 69.5843 65.2616C69.4994 65.3468 69.3295 65.3468 69.2445 65.432C69.1596 65.5172 69.0746 65.6024 69.0746 65.7728C68.9897 65.858 68.9897 66.0284 68.9897 66.1136V91.673H67.8004C67.6305 91.673 67.5456 91.673 67.4606 91.7581C67.3757 91.8433 67.2058 91.8434 67.1209 91.9286C67.0359 92.0137 66.951 92.0989 66.866 92.2693C66.7811 92.3545 66.7811 92.5249 66.7811 92.6101C66.7811 92.6953 66.7811 92.8657 66.866 92.9509C66.951 93.0361 66.951 93.2065 67.1209 93.2917C67.2058 93.3769 67.2907 93.4621 67.4606 93.4621C67.5456 93.5473 67.7155 93.5473 67.8004 93.5473H68.9897V96.9552H59.3057C59.2207 96.9552 59.1358 96.87 59.0508 96.87C58.9659 96.7848 58.9659 96.6996 58.9659 96.6144C58.9659 95.8477 59.3057 95.0809 59.8154 94.4845C60.41 93.8881 61.1745 93.6325 61.9391 93.6325C62.5337 93.6325 63.1283 93.7177 63.638 93.9733C64.1477 94.2289 64.6574 94.5697 65.0821 94.9957C65.252 95.1661 65.5069 95.2513 65.7617 95.2513C66.0165 95.2513 66.2714 95.1661 66.4413 94.9957C66.5262 94.9105 66.6112 94.8253 66.6112 94.6549C66.6961 94.5697 66.6961 94.3993 66.6961 94.3141C66.6961 94.2289 66.6961 94.0585 66.6112 93.9733C66.5262 93.8881 66.5262 93.7177 66.4413 93.6325C65.5918 92.7805 64.4875 92.1841 63.3832 91.8434C62.7036 76.0817 61.1745 30.8416 61.1745 30.4156V30.3304C61.8541 29.9044 62.6186 29.5637 63.4681 29.3933L64.1477 41.747C64.1477 42.2582 64.4025 42.7693 64.7423 43.1101C65.1671 43.4509 65.6767 43.7065 66.1864 43.7065H73.6618C73.9166 43.7065 74.1715 43.7065 74.4263 43.5361C74.6812 43.4509 74.936 43.2805 75.1059 43.1101C75.2758 42.9397 75.4457 42.6841 75.5307 42.4285C75.6156 42.173 75.7005 41.9174 75.7005 41.6618L76.3801 29.3933C77.0597 29.6489 77.7393 29.9896 78.4189 30.3304C78.4189 30.4156 78.3339 30.5008 78.3339 30.586C78.3339 31.012 76.8049 75.9113 76.2952 91.8434C75.1059 92.0989 74.0016 92.6953 73.2371 93.6325C73.1521 93.7177 73.0672 93.8029 73.0672 93.9733C72.9822 94.0585 72.9822 94.2289 72.9822 94.3141C72.9822 94.3993 72.9822 94.5697 73.0672 94.6549C73.1521 94.7401 73.1521 94.9105 73.2371 94.9957C73.322 95.0809 73.407 95.1661 73.5769 95.1661C73.6618 95.2513 73.8317 95.2513 73.9166 95.2513C74.0016 95.2513 74.1715 95.2513 74.2564 95.1661C74.3414 95.0809 74.5113 95.0809 74.5962 94.9957C75.4457 94.1437 76.55 93.7177 77.6543 93.7177C78.0791 93.7177 78.5038 93.8029 78.8436 93.8881C79.1834 94.0585 79.6081 94.2289 79.863 94.5697C80.1178 94.8253 80.3727 95.1661 80.5426 95.5921C80.6275 95.8476 80.7124 96.2736 80.7974 96.6996ZM82.9211 55.2082L82.3265 58.9569C82.2415 59.2977 82.1566 59.5533 81.9017 59.8089C81.6469 59.9793 81.392 60.1497 81.0522 60.1497H79.3533C79.4382 56.4862 79.6081 52.9079 79.6931 49.5L83.6007 49.8408C83.4308 51.5447 83.1759 53.4191 82.9211 55.2082Z" fill="white"/>
<path d="M75.8673 48.3923C75.8673 48.3071 75.8673 48.1367 75.7823 48.0515C75.6974 47.9663 75.6974 47.7959 75.6124 47.7107C75.5275 47.6255 75.4425 47.5403 75.2727 47.5403C75.1028 47.5403 75.0178 47.4551 74.9329 47.4551H65.079C64.8241 47.4551 64.5693 47.5403 64.3994 47.7107C64.2295 47.8811 64.1445 48.1367 64.1445 48.3923C64.1445 48.6478 64.2295 48.9034 64.3994 49.0738C64.5693 49.2442 64.8241 49.3294 65.079 49.3294H74.8479C75.1028 49.3294 75.3576 49.2442 75.5275 49.0738C75.6974 48.9034 75.8673 48.6478 75.8673 48.3923Z" fill="white"/>
<path d="M33.4801 50.1816C30.6768 50.4372 27.9585 50.4372 25.1552 50.1816C24.9004 50.1816 24.6456 50.2668 24.4757 50.4372C24.3058 50.6076 24.1359 50.778 24.1359 51.0336C24.0509 51.4596 24.4757 51.9708 24.9854 52.056C25.0703 52.056 26.8542 52.2264 29.3177 52.2264C30.7618 52.2264 32.2059 52.2264 33.65 52.056C33.8199 52.056 33.9048 52.056 33.9898 51.9708C34.0747 51.8856 34.2446 51.8004 34.3296 51.7152C34.4145 51.63 34.4995 51.4596 34.4995 51.3744C34.4995 51.2892 34.4995 51.1188 34.4995 51.0336C34.4995 50.9484 34.4995 50.778 34.4145 50.6928C34.3296 50.6076 34.3296 50.5224 34.2446 50.4372C34.1597 50.352 34.0747 50.2668 33.9048 50.2668C33.7349 50.1816 33.5651 50.1816 33.4801 50.1816Z" fill="white"/>
<path d="M45.3712 39.5321C45.3712 39.2765 45.3712 38.9357 45.2863 38.6801C44.9465 36.2093 43.9271 33.909 42.3131 32.0346C40.6991 30.1603 38.5754 28.7971 36.1969 28.2007H36.112C36.112 28.2007 35.5173 28.1155 34.9227 28.0303C36.1969 26.156 36.8765 23.9408 36.8765 21.7257C36.8765 20.7885 36.7066 19.7661 36.2819 18.9142C35.9421 18.0622 35.3474 17.2102 34.6679 16.5286C33.9883 15.847 33.2237 15.3359 32.2893 14.9099C31.4398 14.5691 30.4205 14.3135 29.4861 14.3135C28.5516 14.3135 27.6172 14.4839 26.6828 14.9099C25.8333 15.2507 24.9838 15.847 24.3043 16.5286C23.6247 17.2102 23.115 18.0622 22.6903 18.9142C22.3505 19.7661 22.0956 20.7885 22.0956 21.7257C22.1806 24.026 22.8602 26.2412 24.0494 28.1155C23.3698 28.2007 22.8602 28.2859 22.8602 28.2859H22.7752C20.3967 28.9675 18.273 30.2455 16.659 32.1198C15.045 33.9942 14.0256 36.2945 13.6858 38.7653C13.6858 39.0209 13.6009 39.3617 13.6009 39.6173C13.346 45.1551 13.6009 50.693 14.5353 56.0605L15.1299 59.724C15.2149 60.4908 15.6396 61.1723 16.2342 61.6835C16.8289 62.1947 17.5934 62.4503 18.273 62.4503H19.5472L17.0837 84.1758C17.0837 84.4314 17.0837 84.6018 17.2536 84.7722C17.3386 84.9426 17.5085 85.113 17.7633 85.1982C17.8483 85.1982 18.9526 85.4538 20.8214 85.7945C20.9064 87.9245 20.9913 90.0545 20.9913 91.9288C19.802 92.0992 18.6977 92.6104 17.9332 93.4624C17.0837 94.3143 16.659 95.5071 16.659 96.6999C16.659 97.2963 16.9138 97.8927 17.3386 98.3186C17.7633 98.7446 18.3579 99.0002 18.9526 99.0002H39.9346C40.5292 99.0002 41.1239 98.7446 41.5486 98.3186C41.9733 97.8927 42.2282 97.2963 42.2282 96.6999C42.2282 95.5071 41.8034 94.3143 40.954 93.4624C40.1045 92.6104 39.0002 92.014 37.8109 91.9288C37.8959 90.0545 37.9808 88.0097 37.9808 85.7094C39.6798 85.4538 40.6142 85.113 40.6991 85.113C40.954 85.0278 41.1239 84.9426 41.2088 84.7722C41.2938 84.6018 41.3787 84.3462 41.2938 84.0906L39.1701 62.3651H40.4443C41.2088 62.3651 41.9733 62.1095 42.483 61.5983C43.0777 61.0871 43.4174 60.4056 43.5873 59.6388L44.182 55.9753C45.2863 50.6078 45.711 45.0699 45.3712 39.5321ZM43.5024 38.9357C43.5024 39.1913 43.5024 39.3617 43.5873 39.6173C43.7572 42.5992 43.6723 45.4959 43.5024 48.4779L39.4249 48.1371C39.5948 42.8548 39.6798 39.3617 39.6798 39.3617C39.6798 39.2765 39.6798 39.1061 39.5948 39.0209C39.5099 38.9357 39.5099 38.7653 39.4249 38.6801C39.34 38.5949 39.255 38.5097 39.0851 38.5097C39.0002 38.4245 38.8303 38.4245 38.7453 38.4245C38.4905 38.4245 38.2356 38.5097 38.0658 38.6801C37.8959 38.8505 37.8109 39.1061 37.8109 39.3617L37.5561 42.5992L30.4205 42.4288V35.3574L34.8377 36.1242H35.0076C35.2625 36.1242 35.5173 36.0389 35.7722 35.8686C35.8571 35.6982 35.9421 35.613 35.9421 35.4426C35.9421 35.2722 35.9421 35.1018 35.9421 34.9314L34.413 29.9047C34.9227 29.9047 35.3474 29.9899 35.8571 30.1603C37.8109 30.7567 39.5948 31.8643 40.954 33.3978C42.3131 34.9314 43.2476 36.8909 43.5024 38.9357ZM27.8721 33.5682L25.3236 33.9942L26.2581 31.0123L27.8721 33.5682ZM33.6485 33.909L31.1001 33.483L32.7141 30.9271L33.6485 33.909ZM29.571 32.5458L28.5516 30.9271C28.8914 31.0123 29.2312 31.0123 29.571 31.0123C29.9108 31.0123 30.1656 31.0123 30.5054 30.9271L29.571 32.5458ZM29.571 16.1878C30.2506 16.1878 31.0151 16.3582 31.6947 16.6138C32.3743 16.8694 32.9689 17.2954 33.4786 17.8066C33.9883 18.3178 34.413 18.9142 34.6679 19.5957C34.9227 20.2773 35.0926 20.9589 35.0926 21.7257C35.0926 23.8556 34.2431 26.4968 32.5442 28.0303L32.3743 28.1155C31.6097 28.7971 30.5904 29.1379 29.571 29.1379C26.0032 29.1379 24.1344 24.7928 24.1344 21.6405C24.1344 20.9589 24.3043 20.1921 24.5591 19.5106C24.8139 18.829 25.2387 18.2326 25.7484 17.7214C26.2581 17.2102 26.8527 16.7842 27.5323 16.5286C28.1269 16.273 28.8065 16.1878 29.571 16.1878ZM15.5547 39.6173C15.5547 39.3617 15.5547 39.1913 15.6396 38.9357C16.0644 34.9314 19.2074 31.2679 23.2849 30.0751C23.4548 30.0751 23.9645 29.9899 24.5591 29.9047L23.1999 34.9314C23.1999 35.1018 23.1999 35.2722 23.1999 35.4426C23.1999 35.613 23.2849 35.7834 23.3698 35.8686C23.5397 36.0389 23.8795 36.1242 24.1344 36.1242H24.3043L28.6366 35.3574V42.4288H21.7558L21.5859 39.3617C21.5859 39.1061 21.501 38.8505 21.3311 38.6801C21.1612 38.5097 20.9064 38.4245 20.6515 38.4245C20.3967 38.4245 20.1418 38.5097 19.9719 38.6801C19.802 38.8505 19.7171 39.1061 19.7171 39.3617C19.7171 39.3617 19.802 42.8548 19.9719 48.1371H19.887L15.6396 48.4779C15.4697 45.5811 15.4697 42.5992 15.5547 39.6173ZM18.3579 60.4908C18.0181 60.4908 17.7633 60.4056 17.5085 60.15C17.2536 59.9796 17.0837 59.6388 17.0837 59.298L16.4891 55.6345C16.2342 53.8453 16.0644 52.0562 15.8095 50.267L20.0569 49.9262V57.7644L19.802 60.4908H18.3579ZM18.6977 96.7851C18.6977 96.0183 19.0375 95.2515 19.5472 94.6551C20.1418 94.0587 20.9064 93.8032 21.6709 93.8032C22.2655 93.8032 22.8602 93.8883 23.3698 94.1439C23.8795 94.3995 24.3892 94.7403 24.8139 95.1663C24.9838 95.3367 25.2387 95.4219 25.4935 95.4219C25.5785 95.4219 25.7484 95.4219 25.8333 95.3367C25.9183 95.2515 26.0882 95.2515 26.0882 95.0811C26.1731 94.9959 26.2581 94.9107 26.2581 94.7403C26.343 94.6551 26.343 94.4847 26.343 94.3995C26.343 94.3143 26.343 94.144 26.2581 94.0588C26.1731 93.9736 26.1731 93.8031 26.0882 93.7179C25.2387 92.866 24.1344 92.2696 23.03 91.9288C22.9451 90.1396 22.8602 88.0949 22.8602 85.965C24.4742 86.1353 26.4279 86.2205 28.6366 86.3057V91.7584H27.3624C27.1075 91.7584 26.8527 91.8436 26.6828 92.014C26.5129 92.1844 26.4279 92.44 26.4279 92.6956C26.4279 92.9512 26.5129 93.2068 26.6828 93.3772C26.8527 93.5476 27.1075 93.6328 27.3624 93.6328H28.5516V97.0407H19.0375C18.9526 97.0407 18.8676 97.0407 18.7827 96.9555C18.6977 96.9555 18.6977 96.8703 18.6977 96.7851ZM35.9421 92.0992C34.7528 92.3548 33.7334 92.9512 32.884 93.8032C32.799 93.8884 32.7141 93.9735 32.7141 94.1439C32.6291 94.2291 32.6291 94.3995 32.6291 94.4847C32.6291 94.5699 32.6291 94.7403 32.7141 94.8255C32.799 94.9107 32.799 95.0811 32.884 95.1663C32.9689 95.2515 33.0539 95.3367 33.2237 95.3367C33.3087 95.4219 33.4786 95.4219 33.5635 95.4219C33.6485 95.4219 33.8184 95.4219 33.9033 95.3367C33.9883 95.2515 34.1582 95.2515 34.2431 95.1663C35.0926 94.3143 36.1969 93.8883 37.3012 93.8883C37.726 93.8883 38.0658 93.9735 38.4905 94.1439C38.8303 94.3143 39.1701 94.4847 39.5099 94.8255C39.8497 95.1663 40.0195 95.4219 40.1894 95.8479C40.3593 96.1887 40.4443 96.6147 40.4443 97.0407C40.4443 97.1259 40.3593 97.2111 40.3593 97.2963C40.2744 97.3815 40.1894 97.3815 40.1045 97.3815H30.5904V93.9735H31.7796C31.8646 93.9735 32.0345 93.9735 32.1194 93.8883C32.2044 93.8031 32.3743 93.8031 32.4592 93.7179C32.5442 93.6328 32.6291 93.5476 32.6291 93.3772C32.7141 93.292 32.7141 93.1216 32.7141 93.0364C32.7141 92.9512 32.7141 92.7808 32.6291 92.6956C32.5442 92.6104 32.5442 92.44 32.4592 92.3548C32.3743 92.2696 32.2893 92.1844 32.1194 92.1844C32.0345 92.0992 31.8646 92.0992 31.7796 92.0992H30.5904V86.6465C32.5442 86.6465 34.413 86.4761 36.2819 86.3057C36.1969 88.1801 36.112 90.31 35.9421 92.0992ZM29.3162 84.5166C25.9183 84.5166 22.4354 84.1758 19.1225 83.5794L21.8408 60.3204V54.1009L21.7558 44.3032H37.4711L37.3012 60.2352L39.6798 83.5794C36.2819 84.1758 32.799 84.5166 29.3162 84.5166ZM42.6529 55.7197L42.0583 59.3832C41.9733 59.724 41.8884 59.9796 41.6335 60.2352C41.3787 60.4908 41.1239 60.4908 40.7841 60.4908H39.255L39.0002 57.9348C39.0851 55.0381 39.255 52.397 39.255 49.9262L43.1626 50.267C43.0777 52.1414 42.9078 53.9305 42.6529 55.7197Z" fill="white"/>
<path d="M35.776 20.7026H23.2887C23.0338 20.7026 22.779 20.6174 22.5242 20.447C22.3543 20.2766 22.1844 20.021 22.0994 19.7654L20.9102 13.12C20.9102 12.9496 20.9102 12.7792 20.9102 12.6088C20.9951 12.4384 20.9951 12.268 21.165 12.1828C21.2499 12.0124 21.4198 11.9272 21.5897 11.842C21.7596 11.7568 21.9295 11.7568 22.0994 11.7568H37.1351C37.305 11.7568 37.4749 11.7568 37.6448 11.842C37.8147 11.9272 37.8997 12.0124 38.0695 12.1828C38.2394 12.3532 38.2394 12.4384 38.3244 12.6088C38.3244 12.7792 38.4093 12.9496 38.3244 13.12L36.9652 19.7654C36.8803 20.021 36.7953 20.2766 36.5405 20.447C36.3706 20.6174 36.0308 20.7026 35.776 20.7026ZM24.3081 18.3171H34.8415L35.691 14.0572H23.5435L24.3081 18.3171Z" fill="white"/>
<path d="M40.0234 72.5887C40.0234 72.7591 40.1084 72.9295 40.1084 73.0999C40.1084 73.1851 40.1084 73.2702 40.1084 73.3554C40.5331 73.0999 41.0428 72.9295 41.5525 72.9295C42.0622 72.9295 42.5719 73.0147 42.9966 73.1851C43.4213 73.3554 43.8461 73.6962 44.1859 74.037C44.3558 74.2074 44.5257 74.2926 44.7805 74.2926C44.9504 74.2926 45.2052 74.2074 45.3751 74.037C45.4601 73.9518 45.545 73.8666 45.545 73.7814C45.545 73.6962 45.63 73.611 45.63 73.4406C45.63 73.3554 45.63 73.2703 45.545 73.0999C45.545 73.0147 45.4601 72.9295 45.3751 72.8443C44.6106 72.0775 43.7611 71.5663 42.7418 71.3107C42.6568 68.7548 42.5719 65.3468 42.402 61.4277C41.9772 61.8537 41.3826 62.1093 40.8729 62.1093C40.9579 65.7728 41.1278 68.9252 41.2127 71.3107C40.8729 71.3959 40.4482 71.4811 40.1084 71.5663C40.1084 71.9923 40.1084 72.2479 40.0234 72.5887Z" fill="white"/>
<path d="M58.2013 72.7587C57.5217 71.9919 56.5873 71.4807 55.4829 71.3955C55.5679 68.584 55.7378 64.5797 55.9077 60.1494C55.6528 59.8938 55.4829 59.4678 55.4829 59.0418C55.398 57.3379 54.8034 55.6339 54.6335 53.8448C54.6335 53.6744 54.6335 53.504 54.7184 53.3336C54.6335 52.9928 54.5485 52.652 54.5485 52.226C54.2937 59.8086 54.0388 66.8801 53.8689 71.3103C52.8496 71.5659 51.9151 72.0771 51.2356 72.8439C51.1506 72.9291 51.0657 73.0143 51.0657 73.0995C51.0657 73.1847 50.9807 73.2699 50.9807 73.4403C50.9807 73.5255 50.9807 73.6107 51.0657 73.7811C51.1506 73.9515 51.1506 73.9515 51.2356 74.0367C51.3205 74.1219 51.4055 74.2071 51.4904 74.2071C51.5754 74.2071 51.6603 74.2923 51.8302 74.2923C51.9151 74.2923 52.0001 74.2923 52.17 74.2071C52.2549 74.2071 52.3399 74.1219 52.4248 74.0367C53.1044 73.3551 54.1238 72.9291 55.0582 72.9291C55.398 72.9291 55.7378 72.9291 56.0776 73.0995C56.4174 73.1847 56.6722 73.4403 56.927 73.6107C57.1819 73.8663 57.3518 74.1219 57.5217 74.4627C57.6916 74.8035 57.7765 75.1443 57.7765 75.485C57.7765 75.5702 57.7765 75.6554 57.6916 75.7406C57.5217 75.8258 57.4367 75.8258 57.3518 75.8258H49.1119V72.9291H50.1313C50.3011 72.9291 50.556 72.8439 50.6409 72.6735C50.8108 72.5031 50.8958 72.3327 50.8958 72.1623C50.8958 71.9919 50.8108 71.7363 50.6409 71.6511C50.471 71.4807 50.3011 71.3955 50.1313 71.3955H49.1119V49.4145C49.1119 49.3293 49.1119 49.2441 49.0269 49.0737C49.0269 48.9885 48.942 48.9033 48.857 48.8181C48.7721 48.7329 48.6871 48.6477 48.6022 48.6477C48.5172 48.6477 48.4323 48.5625 48.2624 48.5625C48.1775 48.5625 48.0925 48.5625 47.9226 48.6477C47.8377 48.6477 47.7527 48.7329 47.6678 48.8181C47.5828 48.9033 47.4979 48.9885 47.4979 49.0737C47.4979 49.1589 47.4129 49.2441 47.4129 49.4145V71.3103H46.3936C46.3086 71.3103 46.1387 71.3104 46.0538 71.3955C45.9688 71.3955 45.8839 71.4807 45.7989 71.5659C45.714 71.6511 45.629 71.7363 45.629 71.8215C45.5441 71.9067 45.5441 71.9919 45.5441 72.1623C45.5441 72.2475 45.5441 72.4179 45.629 72.5031C45.714 72.5883 45.714 72.6735 45.7989 72.7587C45.8839 72.8439 45.9688 72.9291 46.0538 72.9291C46.1387 72.9291 46.3086 73.0143 46.3936 73.0143H47.5828V75.8258H40.2773C40.3623 75.9962 40.3623 76.0814 40.3623 76.2518C40.3623 76.5074 40.3623 76.763 40.3623 76.9334C40.3623 77.1038 40.3623 77.3594 40.3623 77.5298H57.2668C57.7765 77.5298 58.2862 77.3594 58.626 76.9334C58.9658 76.5926 59.2206 76.0814 59.2206 75.5702C59.2206 74.5479 58.8808 73.5255 58.2013 72.7587Z" fill="white"/>
<path d="M41.2939 31.012C41.039 23.9406 40.8691 18.8287 40.8691 18.7435V18.6583C41.4638 18.3176 42.1433 18.062 42.8229 17.8916L43.4176 28.4561C43.4176 28.8821 43.6724 29.3081 43.9272 29.6489C44.267 29.9897 44.6918 30.1601 45.1165 30.1601H51.5725C51.8274 30.1601 51.9973 30.1601 52.2521 30.0749C52.5069 29.9897 52.6768 29.9045 52.8467 29.7341C53.0166 29.5637 53.1016 29.3933 53.2715 29.1377C53.3564 28.9673 53.4414 28.7117 53.4414 28.4561L53.951 17.8916C54.5457 18.1472 55.1403 18.4028 55.7349 18.6583C55.7349 18.7435 55.65 18.8287 55.65 18.9139C55.65 19.0843 55.3952 25.9854 55.1403 34.9312L55.5651 34.2496C55.5651 34.1644 55.65 34.1644 55.65 34.1644C55.9898 33.3124 56.4145 32.5456 56.9242 31.7788C57.0941 25.9854 57.264 21.3847 57.3489 19.6807C58.9629 21.2143 60.0673 23.1738 60.3221 25.389C60.3221 25.5594 60.3221 25.815 60.4071 25.9854C60.492 26.9225 60.492 27.8597 60.492 28.7969C60.9167 28.4561 61.5114 28.2857 62.106 28.3709C62.106 27.5189 62.106 26.7521 62.0211 25.9002C62.0211 25.6446 62.0211 25.389 61.9361 25.1334C61.6813 23.0034 60.8318 21.0439 59.3877 19.4251C58.0285 17.8064 56.1597 16.6988 54.1209 16.1024H54.036C54.036 16.1024 53.5263 16.0172 53.0166 15.932C54.1209 14.3133 54.7156 12.4389 54.7156 10.4793C54.7156 9.88296 54.6306 9.37177 54.4607 8.77539H55.2253C55.3102 8.77539 55.4801 8.77539 55.5651 8.69019C55.65 8.69019 55.7349 8.60499 55.8199 8.51979C55.9048 8.4346 55.9898 8.3494 55.9898 8.2642C55.9898 8.179 56.0747 8.0938 56.0747 7.92341C56.0747 6.30465 55.5651 4.77108 54.6306 3.40792C53.6962 2.12995 52.337 1.10757 50.808 0.596386C50.808 0.42599 50.723 0.170396 50.5531 0.0851979C50.2983 0.0851979 50.1284 0 49.8736 0C49.7037 0 49.6187 0 49.4488 0.0851979C49.3639 0.170396 49.2789 0.255594 49.2789 0.42599C48.9391 0.42599 48.6843 0.340792 48.4295 0.340792C48.0897 0.340792 47.8348 0.340792 47.58 0.42599C47.495 0.340792 47.4101 0.255594 47.3251 0.170396C47.0703 0.0851979 46.9854 0 46.8155 0C46.6456 0 46.3907 0.0851979 46.3058 0.255594C46.1359 0.42599 46.0509 0.596385 46.0509 0.766781C44.5219 1.27797 43.1627 2.21515 42.2283 3.57831C41.2939 4.85628 40.7842 6.47504 40.7842 8.0938C40.7842 8.179 40.7842 8.3494 40.8691 8.4346C40.8691 8.51979 40.9541 8.60499 41.039 8.69019C41.124 8.77539 41.2089 8.86058 41.2939 8.86058C41.3788 8.86058 41.4638 8.94578 41.6337 8.94578H42.3132C42.1433 9.45697 42.0584 10.0534 42.0584 10.6497C42.0584 12.6093 42.653 14.4836 43.7573 16.1024C43.1627 16.1876 42.738 16.2728 42.738 16.2728H42.653C40.6143 16.8692 38.7454 17.9768 37.3863 19.5955C36.0271 21.2143 35.0927 23.1738 34.8379 25.3038C34.8379 25.5594 34.7529 25.815 34.7529 26.0706C34.7529 26.8373 34.668 27.6041 34.668 28.3709C34.8379 28.1153 35.0078 28.1153 35.2626 28.1153C35.6873 28.1153 36.0271 28.2005 36.282 28.4561C36.282 27.6893 36.282 26.9225 36.3669 26.0706C36.3669 25.9002 36.3669 25.6446 36.4519 25.4742C36.7067 23.259 37.811 21.2143 39.51 19.7659C39.5949 21.5551 39.6799 25.389 39.8498 30.3305H39.9347C40.5293 30.3305 41.039 30.6713 41.2939 31.012ZM51.9123 28.3709C51.9123 28.3709 51.9123 28.4561 51.8274 28.4561L51.7424 28.5413H45.2864C45.2864 28.5413 45.2015 28.5413 45.2015 28.4561L45.1165 28.3709L44.6918 18.7435L47.3251 21.8107C47.4101 21.9811 47.58 22.0663 47.7499 22.1515C47.9198 22.2367 48.0897 22.2367 48.3445 22.2367C48.5144 22.2367 48.7693 22.2367 48.9391 22.1515C49.109 22.0663 49.2789 21.9811 49.3639 21.8107L52.337 18.062L51.9123 28.3709ZM46.3907 18.2324C46.9854 18.488 47.6649 18.6583 48.3445 18.6583C48.9391 18.6583 49.5338 18.5731 50.0435 18.3176L48.3445 20.5327L46.3907 18.2324ZM48.4295 17.0396C45.3714 17.0396 43.7573 13.2057 43.7573 10.5645C43.6724 9.96816 43.7573 9.37177 44.0122 8.86058H52.7618C52.9317 9.37177 53.0166 9.96816 53.1016 10.5645C53.0166 13.2909 51.4876 17.0396 48.4295 17.0396ZM42.3982 7.15663C42.5681 6.13425 42.9928 5.11188 43.5875 4.34509C44.1821 3.49312 45.0316 2.81153 45.966 2.38554V2.89673C45.966 3.06713 46.0509 3.32272 46.2208 3.40792C46.3907 3.57831 46.5606 3.66351 46.7305 3.66351C46.9004 3.66351 47.1552 3.57831 47.2402 3.40792C47.4101 3.23752 47.495 3.06713 47.495 2.89673V2.04475C47.7499 2.04475 48.0047 1.95955 48.2596 1.95955C48.5144 1.95955 48.7693 1.95955 49.0241 2.04475V2.89673C49.0241 2.98193 49.0241 3.06713 49.109 3.23752C49.109 3.32272 49.194 3.40792 49.2789 3.49312C49.3639 3.57831 49.4488 3.66351 49.5338 3.66351C49.6187 3.66351 49.7037 3.74871 49.8736 3.74871C49.9585 3.74871 50.0435 3.74871 50.2134 3.66351C50.3833 3.57831 50.3833 3.57831 50.4682 3.49312C50.5532 3.40792 50.6381 3.32272 50.6381 3.23752C50.6381 3.15232 50.723 3.06713 50.723 2.89673V2.38554C51.6575 2.81153 52.5069 3.49312 53.1016 4.2599C53.6962 5.11188 54.1209 6.04905 54.2059 7.15663H42.3982Z" fill="white"/>
<path d="M53.5267 34.1645C53.5267 34.0793 53.5267 33.9089 53.4418 33.8237C53.4418 33.7385 53.3568 33.6533 53.2719 33.5681C53.1869 33.4829 53.102 33.3977 53.017 33.3977C52.9321 33.3977 52.8471 33.3125 52.6772 33.3125H44.2674C44.0126 33.3125 43.8427 33.3977 43.6728 33.5681C43.5029 33.7385 43.418 33.9089 43.418 34.1645C43.418 34.4201 43.5029 34.5905 43.6728 34.7609C43.8427 34.9313 44.0126 35.0165 44.2674 35.0165H52.5923C52.8471 35.0165 53.017 34.9313 53.1869 34.7609C53.3568 34.5905 53.5267 34.3349 53.5267 34.1645Z" fill="white"/>
<path d="M14.9612 35.7834C13.2622 35.8686 11.6482 35.7834 9.94926 35.6982C9.77937 35.6982 9.52452 35.7834 9.35463 35.8686C9.18473 36.039 9.09979 36.2094 9.01484 36.3798C8.92989 36.8058 9.35463 37.1466 9.77937 37.2318C9.86431 37.2318 11.3934 37.4022 13.5171 37.4022C13.8568 37.4022 14.1966 37.4022 14.5364 37.4022C14.3665 36.891 14.5364 36.2094 14.9612 35.7834Z" fill="white"/>
<path d="M22.1804 25.8152C22.0955 25.73 22.0105 25.6448 21.9256 25.6448C21.8406 25.6448 21.7557 25.5596 21.5858 25.5596C21.3309 25.5596 21.161 25.6448 20.9911 25.8152C20.8212 25.9856 20.7363 26.156 20.7363 26.4115L20.5664 29.1379C21.0761 28.8823 21.6707 28.7971 22.2654 28.7971C22.3503 27.3487 22.3503 26.4967 22.3503 26.4967C22.3503 26.4115 22.3503 26.2412 22.2654 26.156C22.2654 25.9856 22.2654 25.9004 22.1804 25.8152Z" fill="white"/>
<path d="M19.2085 71.5664C18.2741 71.822 17.3397 72.3332 16.5752 73.0148C16.4902 73.1 16.4053 73.1852 16.4053 73.2704C16.4053 73.3556 16.3203 73.4408 16.3203 73.6112C16.3203 73.6964 16.3203 73.7816 16.4053 73.952C16.4053 74.0371 16.4902 74.1223 16.5752 74.2075C16.6601 74.2927 16.745 74.3779 16.83 74.3779C16.9149 74.3779 16.9999 74.4631 17.1698 74.4631C17.2547 74.4631 17.3397 74.4631 17.5096 74.3779C17.5945 74.3779 17.6795 74.2927 17.7644 74.2075C18.1892 73.7816 18.7838 73.4408 19.3784 73.2704C19.1236 72.674 19.1236 72.0776 19.2085 71.5664Z" fill="white"/>
<path d="M19.3786 16.8691C19.2937 16.8691 18.784 16.7839 18.2743 16.6987C19.3786 15.08 19.9733 13.2056 19.9733 11.3313C19.9733 10.4793 19.8034 9.71249 19.4636 8.94571C19.2088 8.09373 18.6991 7.41215 18.1044 6.81576C17.5098 6.21938 16.8302 5.79339 16.0657 5.45259C15.3012 5.1118 14.4517 4.94141 13.6872 4.94141C12.9226 4.94141 12.0732 5.1118 11.3086 5.45259C10.5441 5.79339 9.86453 6.21938 9.26989 6.81576C8.67526 7.41215 8.25053 8.09373 7.91074 8.86051C7.57095 9.62729 7.40105 10.4793 7.40105 11.2461C7.40105 13.2056 7.99568 15.08 9.1 16.6987C8.50537 16.7839 8.08063 16.8691 8.08063 16.8691H7.99568C5.95694 17.3803 4.0881 18.5731 2.72894 20.1918C1.36978 21.8106 0.435356 23.7701 0.180513 25.9001C0.180513 26.1557 0.0955659 26.4113 0.0955659 26.6669C-0.159277 31.3528 0.095566 36.1239 0.860093 40.8097L1.36978 43.9621C1.45473 44.6436 1.79452 45.24 2.3042 45.666C2.81389 46.092 3.40852 46.3476 4.0881 46.3476H5.10747L3.06873 64.8356C3.06873 65.0059 3.06873 65.1763 3.23862 65.3467C3.32357 65.5171 3.49347 65.6023 3.66336 65.6875C3.74831 65.6875 4.68273 65.9431 6.29673 66.1987C6.38168 68.0731 6.46663 69.8622 6.46663 71.481C5.44726 71.5662 4.51284 72.0774 3.83326 72.8442C3.15368 73.6109 2.72894 74.5481 2.72894 75.5705C2.72894 76.0817 2.89883 76.5929 3.32357 76.9337C3.66336 77.2745 4.17305 77.53 4.68273 77.53H18.4442H18.5292C18.4442 77.0189 18.5292 76.4225 18.6991 75.9113H14.6216V73.0146H15.641C15.7259 73.0146 15.8109 73.0146 15.9807 72.9294C16.0657 72.9294 16.1506 72.8442 16.2356 72.759C16.3205 72.6738 16.4055 72.5886 16.4055 72.5034C16.4055 72.4182 16.4904 72.333 16.4904 72.1626C16.4904 72.0774 16.4904 71.9922 16.4055 71.8218C16.4055 71.7366 16.3205 71.6514 16.2356 71.5662C16.1506 71.481 16.0657 71.3958 15.9807 71.3958C15.8958 71.3958 15.8109 71.3106 15.641 71.3106H14.6216V66.6247C16.2356 66.6247 17.9345 66.5395 19.5485 66.2839C19.5485 66.3691 19.5485 66.4543 19.5485 66.5395H19.6335C19.6335 66.3691 19.7184 66.2839 19.7184 66.1135C19.6335 65.6023 19.7184 65.0911 19.8034 64.58C17.7646 64.8356 15.641 65.006 13.5173 65.006C10.5441 65.006 7.65589 64.7504 4.76768 64.2392L7.06126 44.3029V38.9354V30.6712H18.869C19.2937 30.0748 19.8034 29.5636 20.483 29.2228L14.5366 29.0524V23.0034L18.3593 23.685H18.5292C18.784 23.685 18.9539 23.5998 19.2088 23.4294C19.2937 23.3442 19.3786 23.1738 19.3786 23.0886C19.3786 23.0034 19.3786 22.833 19.3786 22.6626L18.1044 18.4027C18.5292 18.4027 18.9539 18.4879 19.2937 18.6583C20.5679 18.9991 21.6722 19.5955 22.6916 20.4474C22.7765 19.851 22.8615 19.2547 23.1163 18.7435C21.9271 17.8063 20.7378 17.2099 19.3786 16.8691ZM10.8839 73.2701C10.8839 73.185 10.799 73.0998 10.714 73.0146C9.94948 72.2478 9.1 71.7366 8.08063 71.481C7.99568 69.9474 7.91074 68.1583 7.91074 66.3691C9.26989 66.5395 10.9688 66.6247 12.9226 66.7099V71.3958H11.8183C11.5635 71.3958 11.3936 71.481 11.2237 71.6514C11.0538 71.8218 10.9688 71.9922 10.9688 72.2478C10.9688 72.5034 11.0538 72.6738 11.2237 72.8442C11.3936 73.0146 11.5635 73.0998 11.8183 73.0998H12.8377V75.9965H4.68273C4.59778 75.9965 4.51284 75.9965 4.42789 75.9113C4.34294 75.8261 4.34294 75.7409 4.34294 75.6557C4.34294 74.9741 4.59778 74.2925 5.10747 73.8665C5.61715 73.3553 6.21179 73.0998 6.89137 73.0998C7.40105 73.0998 7.91074 73.185 8.33547 73.3553C8.76021 73.5257 9.18495 73.8665 9.52474 74.2073C9.69463 74.3777 9.86453 74.4629 10.1194 74.4629C10.2043 74.4629 10.2893 74.4629 10.4592 74.3777C10.5441 74.3777 10.6291 74.2925 10.714 74.2073C10.799 74.1221 10.8839 74.0369 10.8839 73.9517C10.8839 73.8665 10.9688 73.7813 10.9688 73.6109C10.9688 73.4405 10.9688 73.3553 10.8839 73.2701ZM5.61715 42.1729L5.36231 44.4733H4.0881C3.83326 44.4733 3.57841 44.3881 3.32357 44.2177C3.15368 44.0473 2.98378 43.7917 2.89883 43.5361L2.55904 40.3838C2.3042 38.8502 2.13431 37.3166 1.96441 35.7831L5.61715 35.4423V42.1729ZM12.9226 29.0524H6.97631L6.89137 26.4113C6.89137 26.1557 6.80642 25.9853 6.63652 25.8149C6.46663 25.6445 6.29673 25.5593 6.04189 25.5593C5.78705 25.5593 5.61715 25.6445 5.44726 25.8149C5.27736 25.9853 5.19242 26.1557 5.19242 26.4113C5.19242 26.4113 5.27736 29.3932 5.44726 33.9087L1.79452 34.2495C1.62462 31.7788 1.62462 29.2228 1.70957 26.6669C1.70957 26.4965 1.70957 26.2409 1.79452 26.0705C2.21925 22.5774 4.85262 19.5103 8.42042 18.4879C8.59031 18.4879 9.01505 18.4027 9.52474 18.3175L8.25052 22.5774C8.25052 22.7478 8.25052 22.833 8.25052 23.0034C8.25052 23.1738 8.33547 23.259 8.42042 23.4294C8.59031 23.5998 8.84516 23.685 9.1 23.685H9.26989L13.0076 23.0034V29.0524H12.9226ZM10.1194 21.8106L10.8839 19.2547L12.2431 21.4698L10.1194 21.8106ZM13.6872 20.5326L12.8377 19.1695C13.0925 19.2547 13.4323 19.2547 13.6872 19.2547C13.942 19.2547 14.1968 19.2547 14.4517 19.1695L13.6872 20.5326ZM15.0463 21.3846L16.4055 19.1695L17.17 21.7254L15.0463 21.3846ZM16.1506 16.6987C15.3861 17.3803 14.5366 17.7211 13.6872 17.6359C10.6291 17.6359 9.01505 13.8872 9.01505 11.1609C9.01505 10.5645 9.1 9.96808 9.35484 9.3717C9.60968 8.77531 9.94947 8.26413 10.3742 7.83814C10.7989 7.41215 11.3086 7.07135 11.9033 6.81576C12.4979 6.56017 13.0925 6.47497 13.6872 6.47497C14.2818 6.47497 14.8764 6.64536 15.4711 6.81576C16.0657 7.07135 16.5754 7.41215 17.0001 7.83814C17.4249 8.26413 17.7646 8.77531 18.0195 9.3717C18.2743 9.96808 18.3593 10.5645 18.3593 11.1609C18.3593 13.1204 17.6797 15.4208 16.1506 16.6987Z" fill="white"/>
<path d="M19.039 10.3944H8.33561C8.08077 10.3944 7.91088 10.3092 7.65603 10.1388C7.48614 9.96839 7.31625 9.79799 7.31625 9.5424L6.29688 3.91933C6.29688 3.74894 6.29688 3.66374 6.29688 3.49334C6.29688 3.32295 6.38182 3.23775 6.46677 3.06735C6.55172 2.98216 6.72161 2.89696 6.80656 2.81176C6.97645 2.72656 7.0614 2.72656 7.2313 2.72656H20.1433C20.3132 2.72656 20.3982 2.72656 20.5681 2.81176C20.7379 2.89696 20.8229 2.98216 20.9078 3.06735C20.9928 3.15255 21.0777 3.32295 21.0777 3.49334C21.0777 3.66374 21.0777 3.74894 21.0777 3.91933L19.8885 9.5424C19.8035 9.79799 19.7186 9.96839 19.5487 10.1388C19.5487 10.3092 19.2938 10.3944 19.039 10.3944ZM9.18509 8.43482H18.2745L19.039 4.77131H8.50551L9.18509 8.43482Z" fill="white"/>
<path d="M85.7216 35.6975C83.343 35.8679 80.9645 35.8679 78.586 35.6975C78.4161 35.6975 78.1612 35.7827 77.9913 35.8679C77.8215 36.0383 77.7365 36.2087 77.6516 36.3791C77.5666 36.8051 77.9913 37.1459 78.4161 37.2311C78.501 37.2311 80.0301 37.4015 82.1538 37.4015C83.428 37.4015 84.6172 37.4015 85.8915 37.2311C85.9764 37.2311 86.1463 37.2311 86.2313 37.1459C86.3162 37.0607 86.4012 37.0607 86.4861 36.9755C86.571 36.8903 86.571 36.8051 86.656 36.7199C86.656 36.6347 86.656 36.4643 86.656 36.3791C86.656 36.2939 86.656 36.2087 86.571 36.0383C86.4861 35.9531 86.4861 35.8679 86.4011 35.7827C86.3162 35.6975 86.2313 35.6975 86.1463 35.6123C85.8915 35.6975 85.8065 35.6975 85.7216 35.6975Z" fill="white"/>
<path d="M95.9168 26.5817C95.9168 26.3261 95.9168 26.0705 95.8318 25.8149C95.577 23.685 94.6426 21.7254 93.2834 20.1066C91.9242 18.4879 90.0554 17.3803 88.0167 16.7839H87.9317C87.9317 16.7839 87.422 16.6987 86.9123 16.6135C88.0167 14.9948 88.6113 13.1204 88.6113 11.2461C88.6113 10.3941 88.4414 9.62729 88.1016 8.86051C87.7618 8.09373 87.3371 7.41215 86.7424 6.81576C86.1478 6.21938 85.4682 5.79339 84.7037 5.45259C83.9392 5.1118 83.0897 4.94141 82.3252 4.94141C81.4757 4.94141 80.7112 5.1118 79.9466 5.45259C79.1821 5.79339 78.5025 6.21938 77.9079 6.81576C77.3133 7.41215 76.8885 8.09373 76.5487 8.86051C76.209 9.62729 76.0391 10.4793 76.0391 11.2461C76.0391 13.2056 76.6337 15.08 77.738 16.6987C77.1434 16.7839 76.7186 16.8691 76.7186 16.8691H76.6337C76.4638 16.8691 76.3789 16.9543 76.2939 16.9543C76.7186 17.3803 76.8885 17.8915 76.7186 18.4879C76.8885 18.4027 76.9735 18.4027 77.1434 18.3175C77.3133 18.3175 77.738 18.2323 78.2477 18.1471L77.1434 21.8958C77.2283 22.3218 77.2283 22.7478 77.0584 23.0886C77.0584 23.1738 77.0584 23.1738 77.1434 23.259C77.3133 23.4294 77.5681 23.5146 77.823 23.5146H77.9929L81.7305 22.833V28.882H80.0316C80.7961 29.2228 81.5606 29.734 82.0703 30.5008H89.3758L89.2059 44.1325L91.2447 64.154C88.3565 64.6652 85.3833 65.006 82.4101 65.006C81.3058 65.006 80.2015 64.9207 79.1821 64.9207C79.2671 65.3467 79.2671 65.7727 79.0972 66.1135C79.0972 66.1987 79.1821 66.3691 79.1821 66.4543C80.0316 66.5395 80.8811 66.5395 81.8155 66.6247V71.3106H80.7112C80.4563 71.3106 80.2864 71.3958 80.1165 71.5662C79.9466 71.7366 79.8617 71.907 79.8617 72.1626C79.8617 72.4182 79.9466 72.5886 80.1165 72.759C80.2864 72.9294 80.4563 73.0146 80.7112 73.0146H81.7305V75.9113H78.9273C78.9273 76.4225 78.9273 77.0189 78.7574 77.53H91.4995C92.0092 77.53 92.5189 77.3596 92.8587 76.9337C93.1985 76.5929 93.4533 76.0817 93.4533 75.5705C93.4533 74.5481 93.0286 73.5257 92.349 72.759C91.6694 71.9922 90.65 71.5662 89.6307 71.481C89.7156 69.8622 89.8006 68.0731 89.8006 66.1135C91.2447 65.8579 92.0941 65.6023 92.0941 65.6023C92.264 65.5171 92.4339 65.4319 92.5189 65.2615C92.6038 65.0911 92.6888 64.9208 92.6038 64.6652L90.735 46.0068H91.8393C92.5189 46.0068 93.1135 45.7512 93.6232 45.3252C94.1329 44.8992 94.4727 44.3029 94.5576 43.6213L95.0673 40.4689C95.8318 36.0387 96.1716 31.2676 95.9168 26.5817ZM89.9705 73.185C90.3102 73.3553 90.5651 73.5257 90.8199 73.7813C91.0748 74.0369 91.2447 74.2925 91.4146 74.6333C91.5845 74.9741 91.5845 75.3149 91.5845 75.6557C91.5845 75.7409 91.5845 75.8261 91.4995 75.9113C91.4146 75.9965 91.3296 75.9965 91.2447 75.9965H83.1747V73.0998H84.194C84.279 73.0998 84.3639 73.0998 84.5338 73.0146C84.6188 73.0146 84.7037 72.9294 84.7887 72.8442C84.8736 72.759 84.9585 72.6738 84.9585 72.5886C84.9585 72.5034 85.0435 72.4182 85.0435 72.2478C85.0435 72.1626 85.0435 72.0774 84.9585 71.907C84.9585 71.8218 84.8736 71.7366 84.7887 71.6514C84.7037 71.5662 84.6188 71.481 84.5338 71.481C84.4489 71.481 84.3639 71.3958 84.194 71.3958H83.1747V66.7099C84.7887 66.7099 86.4876 66.6247 88.1016 66.3691C88.0167 68.2435 87.9317 70.0326 87.8468 71.5662C86.8274 71.8218 85.893 72.333 85.2134 73.0146C85.1284 73.0998 85.0435 73.185 85.0435 73.2701C85.0435 73.3553 84.9585 73.4405 84.9585 73.6109C84.9585 73.6961 84.9585 73.7813 85.0435 73.9517C85.0435 74.0369 85.1284 74.1221 85.2134 74.2073C85.2983 74.2925 85.3833 74.3777 85.4682 74.3777C85.5532 74.3777 85.6381 74.4629 85.808 74.4629C85.9779 74.4629 85.9779 74.4629 86.1478 74.3777C86.2328 74.3777 86.3177 74.2925 86.4027 74.2073C87.0822 73.5257 88.1016 73.0998 89.036 73.0998C89.2909 73.0146 89.6307 73.0998 89.9705 73.185ZM77.6531 11.2461C77.6531 10.6497 77.738 10.0533 77.9929 9.4569C78.2477 8.86051 78.5875 8.34932 79.0122 7.92333C79.437 7.49734 79.9466 7.15655 80.5413 6.90096C81.1359 6.64537 81.7305 6.56017 82.3252 6.56017C82.9198 6.56017 83.5144 6.73056 84.1091 6.90096C84.7037 7.15655 85.2134 7.49734 85.6381 7.92333C86.0629 8.34932 86.4027 8.86051 86.6575 9.4569C86.9123 10.0533 86.9973 10.6497 86.9973 11.2461C86.9973 13.1204 86.2328 15.3356 84.7887 16.6135L84.7037 16.6987C84.0241 17.2951 83.1747 17.6359 82.3252 17.5507C79.2671 17.6359 77.6531 13.9724 77.6531 11.2461ZM85.808 21.8106L83.5994 21.3846L84.9585 19.1695L85.808 21.8106ZM78.6724 21.8106L79.437 19.2547L80.7961 21.4698L78.6724 21.8106ZM81.3908 19.1695C81.6456 19.2547 81.9854 19.2547 82.2402 19.2547C82.4951 19.2547 82.7499 19.2547 83.0048 19.1695L82.2402 20.5326L81.3908 19.1695ZM93.5382 40.3838L93.0286 43.5361C93.0286 43.7917 92.8587 44.0473 92.6888 44.2177C92.5189 44.3881 92.1791 44.4733 91.9242 44.4733H90.65L90.3952 42.2581C90.4801 39.7874 90.65 37.487 90.65 35.4423L94.0479 35.7831C93.963 37.3166 93.7931 38.8502 93.5382 40.3838ZM94.3028 34.1643L90.735 33.8235C90.9049 29.308 90.9898 26.3261 90.9898 26.3261C90.9898 26.2409 90.9898 26.0705 90.9049 25.9853C90.9049 25.9001 90.8199 25.8149 90.735 25.7297C90.65 25.6445 90.5651 25.5593 90.4801 25.5593C90.3952 25.5593 90.3102 25.4741 90.1403 25.4741C89.8855 25.4741 89.7156 25.5593 89.5457 25.7297C89.3758 25.9001 89.2909 26.0705 89.2909 26.3261L89.121 29.1376L83.0048 28.9672V23.0034L86.8274 23.685H86.9973C87.2521 23.685 87.422 23.5998 87.6769 23.4294C87.7618 23.3442 87.8468 23.1738 87.8468 23.0886C87.8468 23.0034 87.8468 22.833 87.8468 22.6626L86.5726 18.4027C86.9973 18.4027 87.422 18.4879 87.7618 18.6583C89.4608 19.1695 90.9898 20.1066 92.1791 21.4698C93.3684 22.833 94.0479 24.4517 94.3028 26.2409C94.3028 26.4113 94.3028 26.6669 94.3877 26.8373C94.4727 29.1376 94.4727 31.6936 94.3028 34.1643Z" fill="white"/>
<path d="M87.6757 10.3944H76.9723C76.7175 10.3944 76.5476 10.3092 76.2928 10.1388C76.1229 9.96839 75.953 9.79799 75.953 9.5424L74.9336 3.91933C74.9336 3.74894 74.9336 3.66374 74.9336 3.49334C74.9336 3.32295 75.0185 3.23775 75.1035 3.06735C75.1884 2.98216 75.3583 2.89696 75.4433 2.81176C75.6132 2.72656 75.6981 2.72656 75.868 2.72656H88.78C88.9499 2.72656 89.0349 2.72656 89.2048 2.81176C89.3747 2.89696 89.4596 2.98216 89.5446 3.06735C89.6295 3.15255 89.7145 3.32295 89.7145 3.49334C89.7145 3.66374 89.7145 3.74894 89.7145 3.91933L88.5252 9.5424C88.4402 9.79799 88.3553 9.96839 88.1854 10.1388C88.1854 10.3092 87.9306 10.3944 87.6757 10.3944ZM77.8218 8.43482H86.9112L87.6757 4.77131H77.1422L77.8218 8.43482Z" fill="white"/>
</svg>
